SplineFontDB: 3.0
FontName: Test1
FullName: Test1
FamilyName: Test1
Weight: Regular
Copyright: Copyright (c) 2015, Pushpananda Ekanayaka
UComments: "2015-5-18: Created with FontForge (http://fontforge.org)"
Version: 001.000
ItalicAngle: 0
UnderlinePosition: -100
UnderlineWidth: 50
Ascent: 800
Descent: 200
InvalidEm: 0
LayerCount: 4
Layer: 0 0 "Back" 1
Layer: 1 0 "Fore" 0
Layer: 2 0 "Back 2" 1
Layer: 3 0 "Back 3" 1
XUID: [1021 936 285586038 14980836]
FSType: 0
OS2Version: 0
OS2_WeightWidthSlopeOnly: 0
OS2_UseTypoMetrics: 1
CreationTime: 1431930982
ModificationTime: 1434977780
OS2TypoAscent: 0
OS2TypoAOffset: 1
OS2TypoDescent: 0
OS2TypoDOffset: 1
OS2TypoLinegap: 90
OS2WinAscent: 0
OS2WinAOffset: 1
OS2WinDescent: 0
OS2WinDOffset: 1
HheadAscent: 0
HheadAOffset: 1
HheadDescent: 0
HheadDOffset: 1
OS2CapHeight: 0
OS2XHeight: 0
OS2Vendor: 'PfEd'
MarkAttachClasses: 1
DEI: 91125
Encoding: ISO8859-1
UnicodeInterp: none
NameList: AGL For New Fonts
DisplaySize: -48
AntiAlias: 1
FitToEm: 1
WinInfo: 48 16 13
BeginPrivate: 0
EndPrivate
Grid
-1000 140 m 0
 2000 140 l 1024
-1000 71 m 0
 2000 71 l 1024
-1000 322 m 0
 2000 322 l 1024
-1000 0 m 4
 2000 0 l 1028
-1000 431.5 m 0
 2000 431.5 l 1024
  Named: "1"
EndSplineSet
BeginChars: 256 30

StartChar: g
Encoding: 103 103 0
Width: 603
Flags: W
HStem: -1.15399 71.9065<162.868 390.485> 365.352 26.0267<164.677 305.633> 553.085 23.9947<193.045 346.963>
VStem: 31.596 34.308<156.163 284.916> 523.085 33.9212<205.852 374.742>
LayerCount: 4
Back
Fore
SplineSet
65.9040652651 217.756690347 m 0
 65.9040652651 314.122642713 148.491642868 365.351950183 233.999997455 365.351950183 c 0
 266 365.351950183 293.88667132 358.911108895 321 346 c 9
 321 375 l 17
 291.655125054 386.085841646 259 391.378618529 232.000003444 391.378618529 c 0
 126.170095138 391.378618529 31.5960301257 322.618280415 31.5960301257 207.869486361 c 0
 31.5960301257 80.6392374287 132.917850402 -1.15398720145 285.242387952 -1.15398720145 c 0
 447.244413075 -1.15398720145 557.006697374 115.25051458 557.006697374 271.182978806 c 0
 557.006697374 433.236971394 446.243363388 577.079858394 273.087127664 577.079858394 c 0
 176.649876667 577.079858394 103.927953012 539.371756626 57 470 c 9
 90 470 l 17
 132.781765602 525.005127203 194.707908634 553.085177402 275.440057829 553.085177402 c 0
 415.576556737 553.085177402 523.085468421 431.780189984 523.085468421 295.660472353 c 0
 523.085468421 148.526365796 418.412454023 70.7524940739 276.179776643 70.7524940739 c 0
 175.908160921 70.7524940739 65.9040652651 115.897355797 65.9040652651 217.756690347 c 0
EndSplineSet
Validated: 9
Layer: 2
SplineSet
97.904296875 261.756835938 m 4
 97.904296875 321 154 362.3515625 234 362.3515625 c 4
 266 362.3515625 293.88671875 355.911132812 321 343 c 13
 321 375 l 21
 291.655125054 386.085841646 259 391.378618529 232.000003444 391.378618529 c 4
 126.170095138 391.378618529 31.5960301257 322.618280415 31.5960301257 207.869486361 c 4
 31.5960301257 80.6392374287 132.917850402 -1.15398720145 285.242387952 -1.15398720145 c 4
 447.244413075 -1.15398720145 557.006697374 115.25051458 557.006697374 271.182978806 c 4
 557.006697374 433.236971394 446.243363388 577.079858394 273.087127664 577.079858394 c 4
 176.649876667 577.079858394 103.927953012 539.371756626 57 470 c 13
 93 470 l 21
 135 523 194.708007812 551.084960938 275.440429688 551.084960938 c 4
 418 551.084960938 489.0859375 430 489.0859375 325.66015625 c 4
 489.0859375 201 401 140 278 140 c 4
 188 140 97.904296875 174 97.904296875 261.756835938 c 4
EndSplineSet
Layer: 3
EndChar

StartChar: h
Encoding: 104 104 1
Width: 595
Flags: W
HStem: 0 71<150.041 395.614> 277 25<16.7575 263> 359 36<338.075 436.162> 395 36.5<150.639 234.669> 577 20G<311.5 355.5>
VStem: 45 37<127.613 229.669> 263.086 32.0605<302 361.086> 283 30<424.683 549.228> 513 32<186.191 352.059>
LayerCount: 4
Back
Fore
SplineSet
513 267 m 4xde80
 513 323.666666667 496 376 471 412 c 5
 456.333007812 379.333007812 426 359 383 359 c 4
 319.844284656 359 283 414 283 480 c 4xed80
 283 530 298 566 325 597 c 5
 386 564 456.96484375 492.2421875 493 430 c 4
 531.783203125 363.01171875 545 315 545 245 c 4
 545 117 459 0 276 0 c 4
 155 0 45 46 45 165 c 4
 45 195.720703125 54.775390625 227.831054688 78 248 c 4
 94.126953125 262.004882812 113 273 139 278 c 5
 172.760742188 290.19921875 213.875 302 251 302 c 6
 263 302 l 5
 263.08203125 304.041015625 263.0859375 306.041015625 263.0859375 308 c 4
 263.0859375 356 231 395 194 395 c 4xde80
 155 395 144 371 138.5 355 c 4
 131.951171875 335.948242188 121.87109375 323 100 323 c 4
 84 323 64 333.368164062 64 359 c 4xee80
 64 406 114 431.5 169 431.5 c 4
 257 431.5 295.146484375 363 295.146484375 290 c 4
 295.146484375 286.721679688 295.100585938 280.387695312 295 277 c 5
 231 277 l 6
 186.559570312 277 147.1171875 264.814453125 122 249 c 4
 95 232 82 206.05078125 82 180 c 4
 82 94 189 71 279 71 c 4
 432 71 513 148 513 267 c 4xde80
129 277 m 6
 58 276 32 272.666992188 16 270 c 5
 16 302 l 5
 261 302 l 5
 291 277 l 5
 129 277 l 6
452 440 m 5
 422 486 372 532 334 560 c 5
 322 542 313 518.666666667 313 484 c 4
 313 434.666666667 333 395 390 395 c 4
 414 395 441.763671875 406.140625 452 440 c 5
EndSplineSet
Validated: 5
Layer: 2
SplineSet
496 301 m 4
 496 351 484 387 471 410 c 5
 456 379 426 359 383 359 c 4
 319.844284656 359 283 414 283 480 c 4
 283 530 298 566 325 597 c 5
 386 564 456.96484375 492.2421875 493 430 c 4
 531.783203125 363.01171875 545 315 545 245 c 4
 545 117 459 0 276 0 c 4
 155 0 45 46 45 165 c 4
 45 195.720703125 54.775390625 227.831054688 78 248 c 4
 94.126953125 262.004882812 113 273 139 278 c 5
 172.760742188 290.19921875 213.875 302 251 302 c 6
 261 302 l 5
 261.08203125 304.041015625 261.0859375 306.041015625 261.0859375 308 c 4
 261.0859375 356 230 389 193 389 c 132
 170 389 152.745215065 371.085326199 147.5 355 c 132
 140 332 128 321 102 321 c 4
 84 321 64 333.368164062 64 359 c 4
 64 406 114 431.5 169 431.5 c 4
 257 431.5 295.146484375 363 295.146484375 290 c 4
 295.146484375 286.721679688 295.100585938 278.387695312 295 275 c 5
 233 275 l 6
 188.559570312 275 158.28515625 267.553710938 135 253 c 4
 119 243 108 227 108 207 c 4
 108 149 199 140 279 140 c 4
 432 140 496 210 496 301 c 4
129 275 m 6
 58 274 32 270.666992188 16 268 c 5
 16 302 l 5
 259 302 l 5
 291 275 l 5
 129 275 l 6
449 441 m 5
 419 485 372 529 334 557 c 5
 326 540 317 518 317 488 c 4
 317 438.666992188 350 406 394 406 c 4
 413 406 439 416 449 441 c 5
EndSplineSet
Layer: 3
EndChar

StartChar: k
Encoding: 107 107 2
Width: 806
Flags: HW
HStem: -1.22122 27.5682<559.984 654.223> -1.12219 73.5756<142.153 386.52> 284 24.102<271.739 394.102> 370.322 62.4564<392.293 556.559> 384.552 46.4482<139.019 212.636>
VStem: 55.1416 78.6055<307.696 379.695> 222.818 30.2031<317.164 368.129> 453.645 44.5226<127.762 240.069> 704 56<83.004 238.251>
LayerCount: 4
Back
Fore
SplineSet
266 295 m 5xb780
 291.868777723 304.341503066 317.103110119 308.102003375 345.043984241 308.102003375 c 4
 428.954738746 308.102003375 498.167706599 248.943565796 498.167706599 168.852729339 c 4
 498.167706599 52.8253283098 398.034743185 -1.12218963832 276.065197429 -1.12218963832 c 4
 150.102540557 -1.12218963832 67.0808080808 40.5852069078 27 124 c 5
 40.7929072222 117.80318661 52.6277304998 115.127928182 63 115.127928182 c 4
 124 115.127928182 132 208 214 285 c 5
 221 296 222.818359375 309.123046875 222.818359375 322 c 4
 222.818359375 356 208 384.551757812 174.461914062 384.551757812 c 4
 145 384.551757812 137 365 133.747070312 345 c 4
 131.163212277 329.113655791 125.893554688 304 94 304 c 4
 70 304 55.1416015625 322 55.1416015625 348 c 4
 55.1416015625 384 89.0173697483 431 154 431 c 4x6f80
 219.024722972 431 253.021412916 387 253.021412916 320.000003596 c 4
 253.021412916 319.004857764 253.014776925 318.004830877 253 317 c 5
 303.120666674 374.7809841 400.63630409 432.778158251 505.999705561 432.778158251 c 4
 646 432.778158251 760 335.012578119 760 183 c 4
 760 62.6098238798 687 -1.2212249427 613.000002085 -1.2212249427 c 4
 588.31102476 -1.2212249427 563.69220406 6.1181390751 542 21 c 5
 555 43 l 5
 573.124113785 31.705262424 592.007025006 26.3469673742 609.999998276 26.3469673742 c 4
 661 26.3469673742 704 70.1055097822 704 149 c 4
 704 293 570 370.321757521 448.000003924 370.321757521 c 4
 375 370.321757521 309.728660757 344.88762706 266 295 c 5xb780
338 284 m 4
 160 284 180 144 107 102 c 5
 153.257237239 81.9872621893 205.412698335 72.4533905482 263.508417596 72.4533905482 c 4
 374 72.4533905482 453.645120832 110 453.645120832 189.999995741 c 4
 453.645120832 246 399.033203125 284 338 284 c 4
EndSplineSet
Layer: 2
SplineSet
269 297 m 5
 294.869140625 306.341796875 317.103110119 308.102003375 345.043984241 308.102003375 c 4
 428.954738746 308.102003375 498.167706599 248.943565796 498.167706599 168.852729339 c 4
 498.167706599 52.8253283098 398.034743185 -1.12218963832 276.065197429 -1.12218963832 c 4
 136 -1.12218963832 23 60 24 174 c 5
 34 168 51 162.127929688 67 162.127929688 c 4
 133 162.127929688 132 208 214 285 c 5xb7
 219 296 220.818359375 309.123046875 220.818359375 322 c 4
 220.818359375 356 204 379.551757812 180.461914062 379.551757812 c 4
 160 379.551757812 146 370 143.747070312 345 c 4
 141.766601562 323.01953125 131 294 99 294 c 4
 82 294 55.1414577919 304 55.1414577919 338.999999066 c 4
 55.1414577919 384.002988141 89.0173697483 431 154 431 c 4xaf
 219.024722972 431 253.021412916 387 253.021412916 320.000003596 c 4
 253.021412916 319.004857764 253.014776925 318.004830877 253 317 c 5
 303.120666674 374.7809841 400.63630409 432.778158251 505.999705561 432.778158251 c 4
 646 432.778158251 760 335.012578119 760 183 c 4
 760 62.6098238798 691 -1.2216796875 607 -1.2216796875 c 4
 566 -1.2216796875 544 7 528 19 c 5
 541 43 l 5
 553 35 569 31.3466796875 584 31.3466796875 c 4
 626 31.3466796875 646 75 646 116 c 4
 646 245 530 340 407 340 c 4
 354 340 302 328 269 297 c 5
334 281 m 4
 190 281 199 197 135 154 c 5
 164 146 205.904296875 139 264 139 c 4
 374.491210938 139 420 171 420 220 c 4
 420 254 394 281 334 281 c 4
EndSplineSet
Layer: 3
EndChar

StartChar: y
Encoding: 121 121 3
Width: 653
Flags: W
HStem: -1.30331 27.5084<352 459.125> -0.762226 72.7622<118.584 291.672> 212.412 24.7581<271.316 319.044> 280.021 23.332<136.602 205.514> 362 70.0093<358.596 489.218> 383.056 48.9775<109.558 183.814>
VStem: 32.9551 36.7952<120.972 227.466> 206 33<303 356.706> 239 22<188.818 197.852> 330.111 36.0512<111.65 206.799> 557.148 47.8706<117.773 286.729>
LayerCount: 4
Back
Fore
SplineSet
261 182 m 5xbae0
 267.753468094 203.010789627 281.517899979 212.412279499 294.999999474 212.412279499 c 4
 315 212.412279499 330.111487969 194.870510204 330.111487969 164.323187208 c 4
 330.111487969 100.488408082 274.436769939 72 208 72 c 4
 133.657431312 72 69.7502819416 105.728297678 69.7502819416 175.35945891 c 4
 69.7502819416 245.325077118 125 280.020701546 204.99999651 280.020701546 c 4
 215.953374632 280.020701546 227.31985131 279.352438269 239 278 c 5x7ae0
 237.805156657 360.444190658 197.349468601 432.033407495 118.454977226 432.033407495 c 4
 61.7023205405 432.033407495 33.0236931219 394.207779183 33.0236931219 364.000000718 c 4
 33.0236931219 341 46 327.240234375 65.802734375 327.240234375 c 4
 86.6728515625 327.240234375 100 340 106 355.69271051 c 4
 111.797734694 370.856405871 123.504556884 383.05591496 144.456595979 383.05591496 c 4
 182 383.05591496 206 345.316862256 206 303 c 5
 201.958859853 303.223164665 197.957701716 303.35267071 194.00000399 303.35267071 c 4
 100 303.35267071 32.955072243 246 32.955072243 155.113004833 c 4
 32.955072243 61.0614182824 103.482897226 -0.762226007727 201.033156494 -0.762226007727 c 4x7760
 295.501309239 -0.762226007727 366.162675468 52.9926813027 366.162675468 145.349815118 c 4
 366.162675468 199.139276778 338 237.170373002 300.000001328 237.170373002 c 4
 290.634007167 237.170373002 280.834632615 234.531980846 271 229 c 5
 293 317.666666667 340.666666667 362 414 362 c 4
 504.79384916 362 557.147781594 288.168710145 557.147781594 192.821331899 c 4
 557.147781594 93.4058364165 487 26.2051161814 388.000004424 26.2051161814 c 4
 376.35311101 26.2051161814 364.328223026 27.0869998752 352 29 c 5
 352 2 l 5
 365.993045889 -0.266479263683 379.685193513 -1.30330825989 392.999994701 -1.30330825989 c 4
 516 -1.30330825989 605.018348624 92.0044933398 605.018348624 210.961535223 c 4
 605.018348624 328.650705644 542.17352523 432.009345794 430.301685736 432.009345794 c 4
 329.087366383 432.009345794 248 317 239 192 c 5
 261 182 l 5xbae0
EndSplineSet
Validated: 9
Layer: 2
SplineSet
263 182 m 1
 269.75390625 203.010742188 281.517578125 211.412109375 295 211.412109375 c 0
 309 211.412109375 318 202 318 188 c 0
 318 140 246 131.86328125 208 131.86328125 c 0
 156 131.86328125 93.75 152 93.75 207.359375 c 0
 93.75 244 125 278.020507812 205 278.020507812 c 0
 215.953125 278.020507812 227.3203125 277.352539062 239 276 c 1
 239 362 197.349468601 432.033407495 118.454977226 432.033407495 c 0
 61.7023205405 432.033407495 33.0236931219 394.207779183 33.0236931219 364.000000718 c 0
 33.0236931219 336 50 325 70 325 c 0
 84 325 99.8439988976 332.063108416 108 352 c 0
 117 374 127 380 149 380 c 0
 181 380 205 342 205 303 c 1
 200.958984375 303.223632812 197.957701716 303.35267071 194.00000399 303.35267071 c 0
 100 303.35267071 32.955072243 246 32.955072243 155.113004833 c 0
 32.955072243 61.0614182824 103.482897226 -0.762226007727 201.033156494 -0.762226007727 c 0
 295.501309239 -0.762226007727 366.162675468 52.9926813027 366.162675468 145.349815118 c 0
 366.162675468 199.139276778 338 237.170373002 300.000001328 237.170373002 c 0
 290.634007167 237.170373002 280.834632615 234.531980846 271 229 c 1
 292 288 332 322 412 322 c 0
 502.793945312 322 541.147460938 250 541.147460938 192.821289062 c 0
 541.147460938 93.40625 487 28.205078125 388 28.205078125 c 0
 376.353515625 28.205078125 364.328125 29.0869140625 352 31 c 1
 352 2 l 1
 365.993045889 -0.266479263683 379.685193513 -1.30330825989 392.999994701 -1.30330825989 c 0
 516 -1.30330825989 605.018348624 92.0044933398 605.018348624 210.961535223 c 0
 605.018348624 328.650705644 542.17352523 432.009345794 430.301685736 432.009345794 c 0
 329.087366383 432.009345794 248 317 239 192 c 1
 263 182 l 1
EndSplineSet
Layer: 3
EndChar

StartChar: v
Encoding: 118 118 4
Width: 647
Flags: W
HStem: 0 71<124.979 272.289 352.683 492.381> 288 27<15 125 153.105 261> 391.268 40.8998<156.839 237.617> 468 21G<73 129.601> 556.09 25.9301<215.136 381.468>
VStem: 45.8805 37.511<116.693 232.546> 299 27<106.668 178> 562.143 35.8443<167.396 374.342>
LayerCount: 4
Back
Fore
SplineSet
76.2109375 374.122070312 m 4
 76.2109375 414 123.100792732 432.167358968 165.27885421 432.167358968 c 4
 249.407348514 432.167358968 293.626701618 373.979249619 295 288 c 5
 220 288 l 6
 126.957367049 288 83.3915037787 230 83.3915037787 174.000001556 c 4
 83.3915037787 121.64183372 123.262203778 71 198 71 c 4
 247.046364159 71 299 95.1647551294 299 143 c 6
 299 178 l 5
 326 178 l 5
 326 143 l 6
 326 97.0862774658 373.775105866 71 424 71 c 4
 520.489182971 71 562.143099583 167.485004935 562.143099583 273.218225728 c 4
 562.143099583 428 456 556.09016266 298.464776119 556.09016266 c 4
 217.965924033 556.09016266 153.202703235 524.901888832 106 468 c 5
 73 468 l 5
 127.257569341 545.9335996 209.737496069 582.020255488 304.118964686 582.020255488 c 4
 478.635692634 582.020255488 597.987383913 444 597.987383913 258.221926564 c 4
 597.987383913 126.285711076 547.007371766 -0.0251311659364 427.655553183 -0.0251311659364 c 4
 363.027670828 -0.0251311659364 334.630436238 28.5207489381 313 59 c 5
 283.406198924 21.686076905 250 0 199 0 c 4
 97.9838045205 0 45.8804869702 81.1902905721 45.8804869702 161.999997835 c 4
 45.8804869702 212 71.0486818679 264.197947883 125 288 c 5
 15 288 l 5
 15 315 l 5
 261 315 l 5
 258.164478188 357.532827182 228 391.267578125 198 391.267578125 c 4
 180.364257812 391.267578125 165.118202841 387.385986725 151 363 c 4
 140 344 126.646484375 339.263671875 113 339.263671875 c 4
 93 339.263671875 76.2109375 353 76.2109375 374.122070312 c 4
EndSplineSet
Validated: 1
Layer: 2
SplineSet
76.2109375 373.122070312 m 4
 76.2109375 416 123.100585938 432.166992188 165.279296875 432.166992188 c 4
 244 432.166992188 294 378 295 286 c 5
 224 286 l 6
 130.95703125 286 105.391601562 236 105.391601562 205 c 4
 105.391601562 151 149.990234375 131 203 131 c 4
 267 131 298 152 298 191 c 6
 298 212 l 5
 327 212 l 5
 327 191 l 6
 327 155 353 131 414 131 c 4
 489 131 542.143554688 195 542.143554688 288.217773438 c 4
 542.143554688 429 456 554.08984375 298.46484375 554.08984375 c 4
 217.965820312 554.08984375 156 523 108 468 c 5
 73 468 l 5
 127.257569341 545.9335996 209.737496069 582.020255488 304.118964686 582.020255488 c 4
 478.635692634 582.020255488 597.987383913 444 597.987383913 258.221926564 c 4
 597.987383913 126.285711076 547.007371766 -0.0251311659364 427.655553183 -0.0251311659364 c 4
 363.027670828 -0.0251311659364 334.630436238 28.5207489381 313 59 c 5
 283.406198924 21.686076905 250 0 199 0 c 4
 97.9838045205 0 45.8804869702 81.1902905721 45.8804869702 161.999997835 c 4
 45.8804869702 212 71.048828125 262.198242188 125 286 c 5
 15 286 l 5
 15 315 l 5
 259 315 l 5
 256.1640625 357.533203125 226 388.267578125 198 388.267578125 c 4
 184 388.267578125 168.203125 387.365234375 153 360 c 4
 143 342 130 337.263671875 114 337.263671875 c 4
 94 337.263671875 76.2109375 351 76.2109375 373.122070312 c 4
EndSplineSet
Layer: 3
EndChar

StartChar: m
Encoding: 109 109 5
Width: 616
Flags: W
HStem: 0 71<167.441 436.874> 301.718 25.2104<137.183 244.682 353.184 480.514> 395.274 38.3514<146.88 231.541> 404.638 28.4804<381.892 483.336>
VStem: 31.3314 37.6686<145.617 254.663> 55.3252 83.3285<333.165 389.37> 244.682 30.1876<325.316 378.086> 321.143 32.0411<325 379.229> 505.479 35.54<315.441 386.529> 540 34.0059<151.063 258.063>
LayerCount: 4
Back
Fore
SplineSet
438.844851469 433.118522656 m 4xdb40
 505 433.118522656 541.018818118 392.966132064 541.018818118 354.00000109 c 4xd380
 541.018818118 334 532.547911667 316.666882281 514 303 c 5
 554.33230994 279.472819202 574.005875264 240.742748716 574.005875264 186.451529958 c 4
 574.005875264 55.5619188946 447.644682871 -7.1054273576e-15 307 0 c 4
 158.589562849 0 31.3313942639 45.9203100819 31.3313942639 183.554236057 c 4xdb40
 31.3313942639 274.623686336 99.2296726839 326.928127469 206.999992832 326.928127469 c 4
 220 326.928127469 231.208483236 326.289067581 244 325 c 5
 244.46074454 328.824179686 244.682006201 332.490731105 244.682006201 336.000018199 c 4
 244.682006201 375 219.122578671 395.274253688 188.000000927 395.274253688 c 4
 155.970149562 395.274253688 143.560777761 378.802322884 138.653731877 360.000000482 c 4
 135 346 122.345703125 328.073242188 94 328.073242188 c 4
 75 328.073242188 55.3251953125 340 55.3251953125 365 c 4
 55.3251953125 409 103 433.625654084 158.189212207 433.625654084 c 4xe7
 230.547628845 433.625654084 274.869626667 401 274.869626667 334.000351519 c 4
 274.869626667 322.637138529 273.631835938 311.303710938 271 298 c 5
 253.180664062 300.375976562 218.23046875 301.717773438 217 301.717773438 c 4
 139.720703125 301.717773438 69 275.738098097 69 201 c 4
 69 106.583973361 193 71 307 71 c 4
 413.550560931 71 540 110 540 205 c 4
 540 277.999460492 472 303.612307156 394.000002487 303.612307156 c 4
 370.819078063 303.612307156 346.926878013 301.168523275 324 297 c 5
 322.072237276 307.92398877 321.143157328 318.266754681 321.143157328 327.99999265 c 4
 321.143157328 397 365.956884184 433.118522656 438.844851469 433.118522656 c 4xdb40
489 315 m 5
 500.332281081 325.70270991 505.478854717 338.485512262 505.478854717 350.99999917 c 4
 505.478854717 380 479 404.638085784 432.00000156 404.638085784 c 4
 388.777760128 404.638085784 353.184269997 381 353.184269997 336 c 4
 353.184269997 332.227818093 353.463260313 328.864525744 354 325 c 5
 370.954790497 327.055126121 387.344972512 328.097600692 402.999995377 328.097600692 c 4
 436 328.097600692 464.459880481 323.7643284 489 315 c 5
EndSplineSet
Validated: 1
Layer: 2
SplineSet
438.844851469 433.118522656 m 1052
438.844851469 433.118522656 m 1052
438.844851469 433.118522656 m 4,0,1
 505 433.118522656 541.018818118 392.966132064 541.018818118 354.00000109 c 4,0,0
 541.018818118 334 532.547911667 316.666882281 514 303 c 5,2,3
 554.33230994 279.472819202 574.005875264 240.742748716 574.005875264 186.451529958 c 4,4,5
 574.005875264 55.5619188946 447.644682871 -7.1054273576e-15 307 0 c 4,6,7
 158.589562849 0 31.3313942639 45.9203100819 31.3313942639 183.554236057 c 4,8,9
 31.3313942639 274.623686336 99.2296726839 326.928127469 206.999992832 326.928127469 c 4,0,0
 220 326.928127469 229.208007812 326.2890625 242 325 c 5,10,11
 242.4609375 328.82421875 242.681640625 332.491210938 242.681640625 336 c 4,0,0
 242.681640625 376 217 390.274414062 194 390.274414062 c 4,0,0
 166 390.274414062 151.787512786 376.43949242 145.653320312 358 c 4,0,0
 139 338 122 326.073242188 97 326.073242188 c 4,0,0
 76 326.073242188 55.3251953125 337 55.3251953125 367 c 4,0,0
 55.3251953125 408 103 433.625654084 158.189212207 433.625654084 c 4,16,17
 230.547628845 433.625654084 274.869626667 401 274.869626667 334.000351519 c 4,0,0
 274.869626667 322.637138529 273.631835938 309.303710938 271 296 c 5,18,19
 253.180664062 298.375976562 218.23046875 299.717773438 217 299.717773438 c 4,0,0
 144 299.717773438 96 274 96 231 c 4,20,21
 96 158 206 140 307 140 c 4,22,23
 404 140 507 166 507 239 c 4,24,25
 507 276 468 301.612304688 394 301.612304688 c 4,0,0
 370.819335938 301.612304688 346.926757812 299.168945312 324 295 c 5,26,27
 322.072265625 305.923828125 321.143157328 318.266754681 321.143157328 327.99999265 c 4,0,0
 321.143157328 397 365.956884184 433.118522656 438.844851469 433.118522656 c 4,0,1
487 315 m 5,28,29
 498.33203125 325.703125 502.478515625 338.485351562 502.478515625 351 c 4,0,0
 502.478515625 380 479 402.637695312 432 402.637695312 c 4,0,0
 390 402.637695312 355.184570312 381 355.184570312 336 c 4,0,0
 355.184570312 332.227539062 355.462890625 328.864257812 356 325 c 5,32,33
 372.955078125 327.0546875 387.344972512 328.097600692 402.999995377 328.097600692 c 4,0,0
 436 328.097600692 462.459960938 323.764648438 487 315 c 5,28,29
EndSplineSet
Layer: 3
SplineSet
271 297 m 5
 226.333333333 301.666666667 186.333333333 299.333333333 151 290 c 4
 110.333333333 278.666666667 90 256 90 222 c 4
 90 213.333333333 91.6666666667 204.333333333 95 195 c 4
 111.666666667 143 184.333333333 117 313 117 c 4
 435.666666667 117 504 142.333333333 518 193 c 4
 520.666666667 203.666666667 522 213.666666667 522 223 c 4
 522 265 497.333333333 289.666666667 448 297 c 4
 412.666666667 302.333333333 371.333333333 302.333333333 324 297 c 5
 322 308.333333333 321 319 321 329 c 4
 321 361.666666667 331.666666667 387.5 353 406.5 c 132
 374.333333333 425.5 405.333333333 434.333333333 446 433 c 4
 472.666666667 432.333333333 495 424.666666667 513 410 c 132
 531 395.333333333 540 377 540 355 c 4
 540 331 531.333333333 313.666666667 514 303 c 5
 554 279.666666667 574 241.333333333 574 188 c 4
 574 180 573.333333333 171.666666667 572 163 c 4
 566 111 537.666666667 70.3333333333 487 41 c 4
 439.666666667 13.6666666667 379.666666667 0 307 0 c 4
 227.666666667 0 164.333333333 12.6666666667 117 38 c 4
 65 66.6666666667 36.6666666667 109.666666667 32 167 c 4
 26 243 61.3333333333 291.666666667 138 313 c 4
 176.666666667 323.666666667 212 326.333333333 244 321 c 5
 244.666666667 326.333333333 245 331.666666667 245 337 c 4
 245 371 228 388 194 388 c 4
 176 388 162.333333333 381.333333333 153 368 c 4
 139.666666667 348 123.333333333 335 104 329 c 4
 100.666666667 328.333333333 97.3333333333 328 94 328 c 4
 84.6666666667 328 76.6666666667 331.666666667 70 339 c 132
 63.3333333333 346.333333333 60 355.333333333 60 366 c 4
 60 373.333333333 61.6666666667 380 65 386 c 4
 80.3333333333 416.666666667 108.666666667 432 150 432 c 4
 157.333333333 432 166 431.666666667 176 431 c 4
 242 426.333333333 275 394.333333333 275 335 c 4
 275 323.666666667 273.666666667 311 271 297 c 5
489 315 m 5
 500.333333333 323.666666667 506 335 506 349 c 260
 506 363 500.833333333 375.5 490.5 386.5 c 132
 480.166666667 397.5 467 403.333333333 451 404 c 4
 418.333333333 406 393.166666667 399.5 375.5 384.5 c 132
 357.833333333 369.5 350.666666667 349.666666667 354 325 c 5
 388 327 409 327.666666667 417 327 c 4
 446.333333333 325.666666667 470.333333333 321.666666667 489 315 c 5
EndSplineSet
EndChar

StartChar: i
Encoding: 105 105 10
Width: 636
Flags: HW
HStem: 0 70<131.394 272.429 339.859 473.334> 224 29<238.559 353.314> 289 27<288.575 353.616> 410 24<118.455 166.158 290.605 351.086> 466 21G<62 115.5> 555 23<208.36 374.739>
VStem: 30 31<166.2 328.311> 172 27<290.656 402.998> 245 29<329.438 396.012> 293 24<103.887 167> 389 29<285.479 359.953> 554 36<182.11 371.953>
LayerCount: 4
Back
Fore
SplineSet
274 363 m 0
 274 337 295 316 321 316 c 0
 347 316 368 337 368 363 c 0
 368 389 347 410 321 410 c 0
 295 410 274 389 274 363 c 0
388 331 m 1
 382 318 358.65625 289 318 289 c 0
 271.278320312 289 245 324.079101562 245 360 c 256
 245 402 277 434 322 434 c 0
 381 434 418 389 418 330 c 0
 418 268 367 224 296 224 c 0
 225.25445084 224 172 267 172 339 c 0
 172 344.219726562 172.27544052 362.934877611 172.27544052 371.999999557 c 0
 172.27544052 392 168.197801988 406 145 406 c 0
 94 406 61 327 61 254 c 0
 61 149.666457941 116 70 199 70 c 0
 273 70 293 107.666992188 293 141 c 2
 293 167 l 1
 317 167 l 1
 317 140 l 2
 317 95.748046875 356 71 410 71 c 0
 505.558649722 71 554 181.873239616 554 286 c 0
 554 433.479491635 458 556 298 556 c 0
 199 556 140 525 93 466 c 5
 62 466 l 1
 107 531 173 579 300 579 c 0
 488 579 590 431.114542606 590 254 c 0
 590 126.500578052 543 0 406 0 c 0
 365 0 321 16 305 55 c 1
 283 15 246 0 196 0 c 0
 78 0 30 127 30 224 c 0
 30 332 74 431.5 148 431.5 c 0
 167.006835938 431.5 173 428 180 423 c 0
 190.609375 415.421875 198.873046875 401 198.873046875 371 c 0
 198.873046875 357 199 340.014648438 199 337 c 0
 199 284 240 253 295 253 c 0
 348 253 389 281 389 326 c 0
 389 327 389 329 388 331 c 1
EndSplineSet
Layer: 2
SplineSet
274.940429688 361 m 4
 274.940429688 335.51953125 295.51953125 314.940429688 321 314.940429688 c 4
 346.48046875 314.940429688 367.059570312 335.51953125 367.059570312 361 c 4
 367.059570312 386.48046875 346.48046875 407.059570312 321 407.059570312 c 4
 295.51953125 407.059570312 274.940429688 386.48046875 274.940429688 361 c 4
388 331 m 5
 383 316 362 285 318 285 c 4
 271.34375 285 243 322 243 360 c 260
 243 402 274 434 322 434 c 4
 384 434 420 389 420 330 c 4
 420 265 367 225 296 225 c 4
 222 225 170 264 170 339 c 4
 170 344.219726562 170.275390625 362.934570312 170.275390625 372 c 4
 170.275390625 392 164 403 145 403 c 4
 98 403 74 329 74 279 c 4
 74 198 126 138 204 138 c 4
 273 138 291 171.666992188 291 205 c 6
 291 208 l 5
 319 208 l 5
 319 204 l 6
 319 171 342 139 403 139 c 4
 498.55859375 139 531 230 531 323 c 4
 531 437 458 553 298 553 c 4
 199 553 142 522 96 466 c 5
 62 466 l 5
 107 531 173 579 300 579 c 4
 488 579 590 431.114542606 590 254 c 4
 590 126.500578052 543 0 406 0 c 4
 365 0 321 16 305 55 c 5
 283 15 246 0 196 0 c 4
 78 0 30 127 30 224 c 4
 30 332 74 431.5 148 431.5 c 4
 167.006835938 431.5 175 428 182 423 c 4
 192.609375 415.421875 200.873046875 401 200.873046875 371 c 4
 200.873046875 357 201 340.014648438 201 337 c 4
 201 284 240 256 295 256 c 4
 348 256 389 281 389 326 c 4
 389 327 389 329 388 331 c 5
EndSplineSet
Layer: 3
EndChar

StartChar: j
Encoding: 106 106 11
Width: 746
Flags: W
HStem: -1 72<139.59 257.82 329.334 448.361> -1 27<505.666 596.496> 73 27<70.1748 107.875> 288 25<214.989 383.323> 368 66<333.021 512.513> 392 41<120.163 188.978>
VStem: 21 26<19.0385 55.9456> 29 77<300.927 379.449> 194.895 30.1055<346 383.641> 281 26<106.78 163> 474 41<98.2673 214.703> 649 52<91.197 241.445>
LayerCount: 4
Back
SplineSet
101 303 m 0
 94.3333333333 297 84.6666666667 294 72 294 c 0
 55.3333333333 294 43.6666666667 298 37 306 c 128
 30.3333333333 314 27 324 27 336 c 0
 27 354 34 372.166666667 48 390.5 c 128
 62 408.833333333 79.3333333333 421.333333333 100 428 c 0
 111.333333333 431.333333333 123.333333333 433 136 433 c 0
 163.333333333 433 185 426 201 412 c 0
 220.333333333 394 228.333333333 371 225 343 c 1
 246.333333333 367 281 388.333333333 329 407 c 0
 382.333333333 427.666666667 433 436 481 432 c 0
 541.666666667 426.666666667 592.666666667 403.333333333 634 362 c 0
 676 318.666666667 698.333333333 265.333333333 701 202 c 0
 703 149.333333333 691.333333333 104 666 66 c 0
 642 30.6666666667 612 9.33333333333 576 2 c 0
 547.333333333 -4 523.333333333 -0.666666666667 504 12 c 1
 506 38 l 1
 514 33.3333333333 525 30 539 28 c 0
 553.666666667 26 565.333333333 27 574 31 c 0
 628.666666667 54.3333333333 653.333333333 99.3333333333 648 166 c 0
 644 212.666666667 626 254 594 290 c 0
 564.666666667 323.333333333 531 345 493 355 c 0
 461.666666667 363.666666667 430.666666667 368 400 368 c 0
 326.666666667 368 266.333333333 346.333333333 219 303 c 1
 249 309.666666667 277.666666667 313 305 313 c 0
 364.333333333 313 412.666666667 298.166666667 450 268.5 c 128
 487.333333333 238.833333333 508.666666667 197 514 143 c 0
 517.333333333 108.333333333 511 77.6666666667 495 51 c 128
 479 24.3333333333 455.333333333 8 424 2 c 0
 414.666666667 0 405.666666667 -1 397 -1 c 0
 351 -1 317.333333333 20.3333333333 296 63 c 1
 278.666666667 21.6666666667 249 0.333333333333 207 -1 c 0
 178.333333333 -1.66666666667 150.666666667 11 124 37 c 0
 122.666666667 38.3333333333 118 45.6666666667 110 59 c 0
 104 68.3333333333 97.3333333333 73 90 73 c 0
 78 73 67.6666666667 66.1666666667 59 52.5 c 128
 50.3333333333 38.8333333333 46.3333333333 25 47 11 c 1
 21 22 l 1
 24.3333333333 52 34.5 87.1666666667 51.5 127.5 c 128
 68.5 167.833333333 87.6666666667 202.666666667 109 232 c 0
 135 268 163 299.333333333 193 326 c 1
 193.666666667 332.666666667 194 339 194 345 c 0
 194 373 183.666666667 388.333333333 163 391 c 0
 139.666666667 394.333333333 126.333333333 385 123 363 c 0
 117.666666667 331.666666667 110.333333333 311.666666667 101 303 c 0
179 267 m 1
 161.666666667 252.333333333 145 233.666666667 129 211 c 0
 100.333333333 170.333333333 80.6666666667 131.666666667 70 95 c 1
 76 98.3333333333 82.3333333333 100 89 100 c 0
 94.3333333333 100 106.666666667 96 126 88 c 0
 156 75.3333333333 181 69.6666666667 201 71 c 0
 227.666666667 73 249 83.6666666667 265 103 c 0
 275 115.666666667 279.666666667 135.666666667 279 163 c 1
 309 163 l 1
 308.333333333 138.333333333 311.666666667 119.666666667 319 107 c 0
 335 80.3333333333 363 68.3333333333 403 71 c 0
 424.333333333 72.3333333333 442.166666667 82.5 456.5 101.5 c 128
 470.833333333 120.5 477 141.333333333 475 164 c 0
 469 228 426 267.333333333 346 282 c 0
 334 284 319 285 301 285 c 0
 244.333333333 285 203.666666667 279 179 267 c 1
EndSplineSet
Fore
SplineSet
106 323 m 0xb5f0
 99 305 84 297 69 297 c 0
 35 297 29 328 29 340 c 0
 29 394.098632812 79.3632281498 433 136 433 c 0xb5f0
 188.347731079 433 225 399 225 350 c 0
 225 349 225 348 225 346 c 1
 284 401 366 434 453 434 c 0
 603 434 701.000000002 328 701 192 c 0
 700.999999999 109.999777824 658 -1 550 -1 c 0
 540 -1 523.333333333 -0.666666666667 504 12 c 1
 506 38 l 1
 515 31 532 26 554 26 c 0x79f0
 606 26 649 80 649 153 c 0
 649 285 534.341514142 368 400 368 c 0
 326.666666667 368 261.333007812 347.333007812 214 304 c 1
 244 312 277.666666667 313 305 313 c 0
 425 313 515 248 515 126 c 0
 515 67.8472233203 482 -1 397 -1 c 0
 351 -1 317.333333333 20.3333333333 296 63 c 1
 278.666666667 21.6666666667 246.021148364 -1 204 -1 c 0
 117 -1 120 73 87 73 c 0
 64.6748046875 73 50 51 47 11 c 1
 21 22 l 1xbaf0
 28.6966338402 91.2697045622 74.2942734931 184.279626053 109 232 c 0
 135 268 163 297.333007812 193 324 c 1
 194 329 194.89453125 339.435546875 194.89453125 345 c 0
 194.89453125 369 183.407917035 392 158 392 c 0
 144 392 122.478515625 384.287109375 116 363 c 0
 109 340 112.653628896 340.109331446 106 323 c 0xb5f0
178 269 m 1
 160.666992188 254.333007812 145 234.666992188 129 212 c 0
 100.333007812 171.333007812 80.6666666667 131.666666667 70 95 c 1
 76 98.3333333333 82.3333333333 100 89 100 c 0
 118 100 142 71 199 71 c 0
 250.182680149 71 281 101.864211954 281 162 c 0
 281 164.208984375 281.041015625 161.3046875 281 163 c 1
 307 163 l 1
 306.963867188 161.6640625 307 163.330078125 307 162 c 0
 307 96.92631064 334 71 392 71 c 0
 454.088867188 71 474 123 474 159 c 0
 474 242 403.87890625 288 301 288 c 0
 244.333007812 288 202.666992188 281 178 269 c 1
EndSplineSet
Validated: 1
Layer: 2
SplineSet
113 323 m 4
 104.732279418 305.545923216 87 297 72 297 c 132
 35 297 29 328 29 340 c 4
 29 394.098632812 79.3632281498 433 136 433 c 4
 188.347731079 433 225 399 225 350 c 4
 225 349 225 348 225 346 c 5
 284 401 366 434 453 434 c 4
 603 434 701.000000002 328 701 192 c 4
 700.999999999 109.999777824 658 -1 550 -1 c 4
 540 -1 520 0 504 12 c 5
 506 40 l 5
 515 33 531 30 543 30 c 4
 584 30 600 77 600 123 c 4
 600 283 458 344 353 344 c 4
 289 344 244 328 214 304 c 5
 244 312 277.666992188 314 305 314 c 4
 425 314 515 250 515 126 c 4
 515 67.8472233203 482 -1 397 -1 c 4
 351 -1 317.333333333 20.3333333333 296 63 c 5
 278.666666667 21.6666666667 246.021148364 -1 204 -1 c 4
 117 -1 120 73 87 73 c 4
 64.6748046875 73 52 51 49 11 c 5
 21 22 l 5
 28.6966338402 91.2697045622 74.2942734931 184.279626053 109 232 c 4
 135 268 162 296.333007812 192 323 c 5
 193 328 193 335.435546875 193 341 c 4
 193 368 182 386 158 386 c 4
 144 386 128.438133087 378.533465805 124 363 c 4
 118 342 122 342 113 323 c 4
180 268 m 5
 162.666992188 253.333007812 146.522390704 234.996134377 131 212 c 4
 104 172 101 163 91 143 c 5
 103 153 115 160 129 160 c 4
 161 160 172 140 212 140 c 4
 258 140 280 157 280 214 c 4
 280 216.208984375 280.041015625 214.3046875 280 216 c 5
 308 216 l 5
 307.963867188 214.6640625 308 216.330078125 308 215 c 4
 308 154 332 140 377 140 c 4
 418 140 443 169 443 204 c 4
 443 246 402 287 301 287 c 4
 244.333007812 287 204.666992188 280 180 268 c 5
EndSplineSet
Layer: 3
SplineSet
113 323 m 4
 104.732279418 305.545923216 87 297 72 297 c 132
 35 297 29 328 29 340 c 4
 29 394.098632812 79.3632281498 433 136 433 c 4
 188.347731079 433 225 399 225 350 c 4
 225 349 225 348 225 346 c 5
 284 401 366 434 453 434 c 4
 603 434 701.000000002 328 701 192 c 4
 700.999999999 109.999777824 658 -1 550 -1 c 4
 540 -1 520 0 504 12 c 5
 506 40 l 5
 515 33 531 30 543 30 c 4
 584 30 600 77 600 123 c 4
 600 283 458 344 353 344 c 4
 289 344 244 328 214 304 c 5
 244 312 277.666992188 314 305 314 c 4
 425 314 515 250 515 126 c 4
 515 67.8472233203 482 -1 397 -1 c 4
 351 -1 317.333333333 20.3333333333 296 63 c 5
 278.666666667 21.6666666667 246.021148364 -1 204 -1 c 4
 117 -1 120 73 87 73 c 4
 64.6748046875 73 52 51 49 11 c 5
 21 22 l 5
 28.6966338402 91.2697045622 74.2942734931 184.279626053 109 232 c 4
 135 268 162 296.333007812 192 323 c 5
 193 328 193 335.435546875 193 341 c 4
 193 368 182 386 158 386 c 4
 144 386 128.438133087 378.533465805 124 363 c 4
 118 342 122 342 113 323 c 4
180 268 m 5
 162.666992188 253.333007812 146.522390704 234.996134377 131 212 c 4
 104 172 101 163 91 143 c 5
 103 153 115 160 129 160 c 4
 161 160 172 140 212 140 c 4
 250 140 280 152 280 203 c 4
 280 205.208984375 280.041015625 214.3046875 280 216 c 5
 308 216 l 5
 307.963867188 214.6640625 308 204.330078125 308 203 c 4
 308 149 343 140 377 140 c 4
 418 140 443 169 443 204 c 4
 443 246 402 287 301 287 c 4
 244.333007812 287 204.666992188 280 180 268 c 5
EndSplineSet
EndChar

StartChar: p
Encoding: 112 112 12
Width: 598
Flags: W
HStem: 0 71<152.089 433.664> 289 22<150.212 236.589 323.798 432.118> 391 41<144.207 224.986> 406 28<405.232 472.598> 597 20G<532.5 552>
VStem: 33 37<135.01 237.733> 237 29<311.179 373.541> 293 30<309.328 378.087> 359 29<323.775 392.145> 489 31<321.26 389.97> 514 35<134.382 236.345>
LayerCount: 4
Back
SplineSet
262 288 m 5
 229.333333333 291.333333333 196 289.666666667 162 283 c 4
 135.333333333 277.666666667 113.333333333 266 96 248 c 4
 77.3333333333 228 68.6666666667 205.666666667 70 181 c 4
 72 141.666666667 98.3333333333 112.666666667 149 94 c 4
 189 78.6666666667 238.666666667 71 298 71 c 4
 439.333333333 71 511.333333333 108.333333333 514 183 c 4
 515.333333333 209.666666667 506.333333333 232.333333333 487 251 c 4
 469.666666667 267.666666667 446.666666667 278.666666667 418 284 c 4
 377.333333333 291.333333333 338 291.666666667 300 285 c 5
 295.333333333 301 293 316.333333333 293 331 c 4
 293 384.333333333 321.333333333 418.333333333 378 433 c 5
 390.666666667 468.333333333 411.333333333 503.666666667 440 539 c 4
 483.333333333 592.333333333 518 619 544 619 c 4
 560 619 568 611.666666667 568 597 c 4
 568 589.666666667 564.666666667 584 558 580 c 4
 538 568.666666667 509.333333333 549.333333333 472 522 c 5
 438.666666667 493.333333333 416.666666667 463.666666667 406 433 c 5
 415 433 415 433 430 433 c 4
 454.666666667 433.666666667 475.666666667 426.833333333 493 412.5 c 132
 510.333333333 398.166666667 519.333333333 380.333333333 520 359 c 4
 520.666666667 325.666666667 505.333333333 302.333333333 474 289 c 5
 496.666666667 279.666666667 515.166666667 262.833333333 529.5 238.5 c 132
 543.833333333 214.166666667 550.333333333 186.666666667 549 156 c 4
 547 104.666666667 521 65.3333333333 471 38 c 4
 426.333333333 12.6666666667 368.666666667 0 298 0 c 4
 221.333333333 0 159.666666667 13 113 39 c 4
 61 67.6666666667 34.3333333333 110.666666667 33 168 c 4
 32.3333333333 206 46 238.666666667 74 266 c 4
 100.666666667 290.666666667 133.333333333 305.333333333 172 310 c 4
 190 312 211 312.333333333 235 311 c 5
 236.333333333 317.666666667 237 324.333333333 237 331 c 4
 237 371.666666667 219.666666667 392.333333333 185 393 c 4
 163 393.666666667 149 385.666666667 143 369 c 4
 133.666666667 342.333333333 121 327.333333333 105 324 c 4
 100.333333333 322.666666667 96 322 92 322 c 4
 68 322 56 334.666666667 56 360 c 4
 56 366 57.3333333333 372 60 378 c 4
 75.3333333333 414 106.666666667 432 154 432 c 4
 187.333333333 432 214.333333333 422.833333333 235 404.5 c 132
 255.666666667 386.166666667 266 360 266 326 c 4
 266 314 264.666666667 301.333333333 262 288 c 5
361 344 m 4
 356.333333333 362 358.666666667 382.666666667 368 406 c 5
 338 388.666666667 323 364.666666667 323 334 c 4
 323 326.666666667 324 318.333333333 326 309 c 5
 333.333333333 309.666666667 344.333333333 310.333333333 359 311 c 4
 365.666666667 311 374.333333333 310.333333333 385 309 c 5
 373 315.666666667 365 327.333333333 361 344 c 4
388 359 m 4
 388 344.333333333 393.166666667 332.166666667 403.5 322.5 c 132
 413.833333333 312.833333333 426 308 440 308 c 4
 453.333333333 308 464.833333333 312.5 474.5 321.5 c 132
 484.166666667 330.5 489 341.666666667 489 355 c 260
 489 368.333333333 484.166666667 380.166666667 474.5 390.5 c 132
 464.833333333 400.833333333 452.333333333 406 437 406 c 4
 423.666666667 406 412.166666667 401.5 402.5 392.5 c 132
 392.833333333 383.5 388 372.333333333 388 359 c 4
EndSplineSet
Fore
SplineSet
262 288 m 1xefa0
 250 289 238 290 229 290 c 0
 110 290 70 233 70 186 c 0
 70 97 189.23046875 71 292 71 c 0
 398 71 514 97 514 186 c 0xefa0
 514 237 470 289 355 289 c 0
 333 289 314 286 300 285 c 1
 295.333333333 301 293 316.333333333 293 331 c 0
 293 384.333333333 322 421 375 430 c 1
 390 472 413 515 445 552 c 0
 489.952148438 603.975585938 521 617 544 617 c 0
 560 617 568 606 568 596 c 0
 568 569 507 564 458 514 c 0
 433.744140625 489.249023438 415.666992188 463.666992188 405 433 c 1
 409 434 425 434 427 434 c 0
 468 434 520 412 520 356 c 0xdfc0
 520 326 505.333333333 302.333333333 474 289 c 1
 517.779641897 270.973088631 549 227 549 168 c 0
 549 45 423.685369974 0 298 0 c 0
 160.148102377 0 33 44 33 170 c 0
 33 249.202148438 96 312 208 312 c 0
 226.110770276 312 227 312 235 311 c 1
 236.333333333 317.666666667 237 324.333333333 237 331 c 0
 237 362 220 391 183 391 c 0
 160.990234375 391 145.896862656 378.04770034 139 363 c 0
 128 339 118.029296875 322 91 322 c 0
 72 322 56 334.666666667 56 360 c 0
 56 408.774178159 106.897999968 432 154 432 c 0
 220.892617187 432 266 393.392270225 266 326 c 0
 266 314 264.666666667 301.333333333 262 288 c 1xefa0
359 360 m 0
 359 378.594726562 362 390 365 399 c 1
 339 387 323 364.666666667 323 334 c 0
 323 326.666666667 324 318.333333333 326 309 c 1
 334 310 343 311 356 311 c 0
 362.666992188 311 373 311 385 309 c 1
 373 315.666666667 359 335 359 360 c 0
388 359 m 0
 388 344.333333333 393.166666667 332.166666667 403.5 322.5 c 0
 413.833333333 312.833333333 426 308 440 308 c 0
 453.333333333 308 464.833333333 312.5 474.5 321.5 c 0
 484.166666667 330.5 489 341.666666667 489 355 c 256
 489 368.333333333 484.166666667 380.166666667 474.5 390.5 c 0
 464.833333333 400.833333333 452.333333333 406 437 406 c 0xdfc0
 423.666666667 406 412.166666667 401.5 402.5 392.5 c 0
 392.833333333 383.5 388 372.333333333 388 359 c 0
EndSplineSet
Validated: 1
Layer: 2
SplineSet
262 285 m 1
 250 286 238 287 229 287 c 0
 110 287 95 242 95 215 c 0
 95 157 189.23046875 140 292 140 c 0
 398 140 485 161 485 220 c 0
 485 239 470 286 355 286 c 0
 333 286 312 283 298 282 c 1
 293.333007812 298 291 316.333007812 291 331 c 0
 291 384.333007812 322 421 375 430 c 1
 390 472 413.787109375 522.185546875 446 559 c 0
 488 607 519 617 536 617 c 0
 552 617 570 608 570 586 c 0
 570 552 512.446289062 547.283203125 470 513 c 0
 444 492 418 459 408 433 c 1
 412 434 425 434 427 434 c 0
 468 434 520 412 520 356 c 0
 520 326 505.333333333 302.333333333 474 289 c 1
 517.779641897 270.973088631 549 227 549 168 c 0
 549 45 423.685369974 0 298 0 c 0
 160.148102377 0 33 44 33 170 c 0
 33 249.202148438 96 312 208 312 c 0
 226.110770276 312 225 312 233 311 c 1
 234.333007812 317.666992188 235 324.333007812 235 331 c 0
 235 354 224 386 187 386 c 0
 164.990234375 386 149.896484375 369.047851562 143 354 c 0
 132 330 120 320 97 320 c 0
 72 320 56 334.666666667 56 360 c 0
 56 408.774178159 106.897999968 432 154 432 c 0
 220.892617187 432 266 393.392270225 266 326 c 0
 266 314 264.666992188 298.333007812 262 285 c 1
359 360 m 0
 359 378.594726562 362 390 365 399 c 1
 339 387 323 364.666666667 323 334 c 0
 323 326.666666667 324 318.333333333 326 309 c 1
 334 310 343 311 356 311 c 0
 362.666992188 311 373 311 385 309 c 1
 373 315.666666667 359 335 359 360 c 0
389.009765625 358.959960938 m 0
 389.009765625 344.586914062 394.073242188 332.663085938 404.200195312 323.190429688 c 128
 414.327148438 313.716796875 426.25 308.98046875 439.969726562 308.98046875 c 0
 453.037109375 308.98046875 464.306640625 313.389648438 473.780273438 322.209960938 c 128
 483.252929688 331.030273438 487.990234375 341.973632812 487.990234375 355.040039062 c 256
 487.990234375 368.106445312 483.252929688 379.703125 473.780273438 389.830078125 c 128
 464.306640625 399.95703125 452.056640625 405.01953125 437.030273438 405.01953125 c 0
 423.962890625 405.01953125 412.693359375 400.610351562 403.219726562 391.790039062 c 128
 393.747070312 382.969726562 389.009765625 372.026367188 389.009765625 358.959960938 c 0
EndSplineSet
Layer: 3
SplineSet
68.349609375 104 m 4
 68.349609375 160.700195312 168.099609375 207.5 292 207.5 c 4
 415.900390625 207.5 515.650390625 160.700195312 515.650390625 104 c 4
 515.650390625 47.2998046875 415.900390625 0.5 292 0.5 c 4
 168.099609375 0.5 68.349609375 47.2998046875 68.349609375 104 c 4
333.919921875 407 m 0
 333.919921875 421.280273438 368.599609375 433.51953125 412.459960938 433.51953125 c 0
 456.3203125 433.51953125 491 421.280273438 491 407 c 0
 491 392.719726562 456.3203125 380.48046875 412.459960938 380.48046875 c 0
 368.599609375 380.48046875 333.919921875 392.719726562 333.919921875 407 c 0
EndSplineSet
EndChar

StartChar: q
Encoding: 113 113 13
Width: 598
Flags: W
HStem: 0 71<152.089 433.664> 160 27<378.963 449.977> 290 22<150.212 236.67 314 432.469> 391 41<144.207 224.986> 410 25<374.18 463.693> 597 20G<531 552>
VStem: 33 37<135.01 237.733> 237 29<311.179 373.541> 287 27<310.11 374.515> 330.515 28.0029<207.45 359.883> 503 28<247.291 374.712> 514 35<134.382 236.008>
LayerCount: 4
Back
SplineSet
262 288 m 5
 250 289 238 290 229 290 c 4
 110 290 70 233 70 186 c 4
 70 97 189.23046875 71 292 71 c 4
 398 71 514 97 514 186 c 4
 514 237 470 289 355 289 c 4
 333 289 314 286 300 285 c 5
 295.333333333 301 293 316.333333333 293 331 c 4
 293 384.333333333 322 421 375 430 c 5
 390 472 413 515 445 552 c 4
 489.952148438 603.975585938 521 617 544 617 c 4
 560 617 568 606 568 596 c 4
 568 569 507 564 458 514 c 4
 433.744140625 489.249023438 415.666992188 463.666992188 405 433 c 5
 409 434 425 434 427 434 c 4
 468 434 520 412 520 356 c 4
 520 326 505.333333333 302.333333333 474 289 c 5
 517.779641897 270.973088631 549 227 549 168 c 4
 549 45 423.685369974 0 298 0 c 4
 160.148102377 0 33 44 33 170 c 4
 33 249.202148438 96 312 208 312 c 4
 226.110770276 312 227 312 235 311 c 5
 236.333333333 317.666666667 237 324.333333333 237 331 c 4
 237 362 220 391 183 391 c 4
 160.990234375 391 145.896862656 378.04770034 139 363 c 4
 128 339 118.029296875 322 91 322 c 4
 72 322 56 334.666666667 56 360 c 4
 56 408.774178159 106.897999968 432 154 432 c 4
 220.892617187 432 266 393.392270225 266 326 c 4
 266 314 264.666666667 301.333333333 262 288 c 5
359 360 m 4
 359 378.594726562 362 390 365 399 c 5
 339 387 323 364.666666667 323 334 c 4
 323 326.666666667 324 318.333333333 326 309 c 5
 334 310 343 311 356 311 c 4
 362.666992188 311 373 311 385 309 c 5
 373 315.666666667 359 335 359 360 c 4
388 359 m 4
 388 344.333333333 393.166666667 332.166666667 403.5 322.5 c 132
 413.833333333 312.833333333 426 308 440 308 c 4
 453.333333333 308 464.833333333 312.5 474.5 321.5 c 132
 484.166666667 330.5 489 341.666666667 489 355 c 260
 489 368.333333333 484.166666667 380.166666667 474.5 390.5 c 132
 464.833333333 400.833333333 452.333333333 406 437 406 c 4
 423.666666667 406 412.166666667 401.5 402.5 392.5 c 132
 392.833333333 383.5 388 372.333333333 388 359 c 4
EndSplineSet
Fore
SplineSet
473 291 m 4xefe0
 516.536132812 270.959960938 549 228 549 168 c 4
 549 45 423.685369974 0 298 0 c 4
 160.148102377 0 33 44 33 170 c 4
 33 249.202148438 96 312 208 312 c 4
 226.110770276 312 227 312 235 311 c 5
 236.333333333 317.666666667 237 324.333333333 237 331 c 4
 237 362 220 391 183 391 c 4
 160.990234375 391 145.896862656 378.04770034 139 363 c 4
 128 339 118.029296875 322 91 322 c 4
 72 322 56 334.666666667 56 360 c 4
 56 408.774178159 106.897999968 432 154 432 c 4
 220.892617187 432 266 393.392270225 266 326 c 4
 266 314 264.666666667 301.333333333 262 288 c 5
 250 289 238 290 229 290 c 4
 110 290 70 233 70 186 c 4
 70 97 189.23046875 71 292 71 c 4
 398 71 514 97 514 186 c 4xf7d0
 514 239 470 289 355 289 c 4
 333 289 306 286 292 285 c 5
 290 292 287 308 287 319 c 4
 287 401 336 435 406 435 c 4
 478 435 531 402 531 325 c 4
 531 268 497 160 415 160 c 4
 366 160 330.514648438 192 330.514648438 262 c 4
 330.514648438 297 336.999898564 335.000027982 345 364 c 4
 364.042370539 433.027651366 400.384765625 504.514648438 445 555 c 4
 483 598 518 617 544 617 c 4
 560 617 568 606 568 596 c 4
 568 566 516.511424616 572.502125987 461 518 c 4
 406 464 358.517578125 364 358.517578125 261 c 4
 358.517578125 214 377 187 417 187 c 4
 468 187 503 272 503 323 c 4
 503 386 464 410 402 410 c 4
 358 410 314 389 314 324 c 4
 314 319 314 314 315 310 c 5
 322 311 334 312.319335938 350 312.319335938 c 4
 388 312.319335938 433.868164062 309.013671875 473 291 c 4xefe0
EndSplineSet
Validated: 5
Layer: 2
SplineSet
473 291 m 0
 516.536132812 270.959960938 549 228 549 168 c 0
 549 45 423.685369974 0 298 0 c 0
 160.148102377 0 33 44 33 170 c 0
 33 249.202148438 96 312 208 312 c 0
 226.110770276 312 225 312 233 311 c 1
 234.333007812 317.666992188 235 324.333007812 235 331 c 0
 235 360 220 384 188 384 c 0
 165.990234375 384 152.896484375 373.047851562 146 358 c 0
 135 334 125 319 97 319 c 0
 72 319 56 334.666666667 56 360 c 0
 56 408.774178159 106.897999968 432 154 432 c 0
 220.892617187 432 266 393.392270225 266 326 c 0
 266 314 264.666992188 298.333007812 262 285 c 1
 250 286 238 287 229 287 c 0
 116 287 93 241 93 217 c 0
 93 158 189.23046875 139 292 139 c 0
 398 139 489 155 489 210 c 0
 489 245 470 286 355 286 c 0
 333 286 305 283 291 282 c 1
 289 289 286 308 286 319 c 0
 286 401 336 435 406 435 c 0
 478 435 531 402 531 325 c 0
 531 274 503 186 424 186 c 0
 384 186 338.514648438 206 338.514648438 278 c 0
 338.514648438 313 341.99497634 334.743724715 349 364 c 0
 366 435 399.868164062 504.241210938 443 556 c 0
 478 598 515 617 541 617 c 4
 561 617 568 603 568 593 c 0
 568 556 526.615234375 562.435546875 471 513 c 0
 417 465 368.517578125 380 368.517578125 277 c 0
 368.517578125 232 395 213 426 213 c 0
 477 213 500 283 500 323 c 0
 500 384 464 407 402 407 c 0
 360 407 315 389 315 324 c 0
 315 319 315 314 316 310 c 1
 323 311 334 312.319335938 350 312.319335938 c 0
 388 312.319335938 433.868164062 309.013671875 473 291 c 0
EndSplineSet
Layer: 3
SplineSet
288.66015625 350.5 m 4
 288.66015625 396.7265625 341.700195312 433.497070312 408 433.497070312 c 4
 474.299804688 433.497070312 527.33984375 396.7265625 527.33984375 350.5 c 4
 527.33984375 304.2734375 474.299804688 267.502929688 408 267.502929688 c 4
 341.700195312 267.502929688 288.66015625 304.2734375 288.66015625 350.5 c 4
EndSplineSet
EndChar

StartChar: r
Encoding: 114 114 14
Width: 647
Flags: WO
HStem: 0 71<124.979 272.289 352.766 494.626> 288 27<15 125 153.105 258> 363 30<375.549 464.246> 391.268 40.8994<153.839 234.617> 583 20G<353.5 416 495.5 512.333>
VStem: 45.8805 37.511<116.693 232.546> 299 27<106.668 178> 318 29<423.929 545.374> 561.144 36.8438<156.816 351.654>
LayerCount: 4
Back
SplineSet
372 567 m 1
 355.333333333 545 347 514.666666667 347 476 c 0
 347 444.666666667 357 422.333333333 377 409 c 0
 393.666666667 398.333333333 409.333333333 393 424 393 c 0
 452 393 476.666666667 412 498 450 c 1
 486.666666667 467.333333333 469.333333333 487.666666667 446 511 c 0
 419.333333333 538.333333333 394.666666667 557 372 567 c 1
52 203 m 0
 57.3333333333 222.333333333 68 240.666666667 84 258 c 0
 98 273.333333333 111.333333333 283.333333333 124 288 c 1
 15 288 l 1
 15 315 l 1
 255 315 l 1
 255 333.666666667 249 351 237 367 c 128
 225 383 211.333333333 391 196 391 c 0
 190.666666667 391 185.333333333 389.666666667 180 387 c 0
 165.333333333 380.333333333 153.666666667 369.333333333 145 354 c 0
 139 342.666666667 127.333333333 336.333333333 110 335 c 0
 100.666666667 333 91.8333333333 335.5 83.5 342.5 c 128
 75.1666666667 349.5 71 358 71 368 c 0
 71 409.333333333 104 430.666666667 170 432 c 0
 208 432.666666667 237.5 419.666666667 258.5 393 c 128
 279.5 366.333333333 289.666666667 331.333333333 289 288 c 1
 195 288 l 2
 166.333333333 288 140.833333333 276.666666667 118.5 254 c 128
 96.1666666667 231.333333333 85 205.333333333 85 176 c 0
 85 148 95.5 123.5 116.5 102.5 c 128
 137.5 81.5 164.666666667 71 198 71 c 0
 224.666666667 71 248.166666667 77.8333333333 268.5 91.5 c 128
 288.833333333 105.166666667 299 123.333333333 299 146 c 2
 299 190 l 1
 326 190 l 1
 326 146 l 2
 326 123.333333333 336 105.166666667 356 91.5 c 128
 376 77.8333333333 399 71 425 71 c 0
 473.666666667 71 510.666666667 94.3333333333 536 141 c 0
 558.666666667 181.666666667 568 230 564 286 c 0
 562 312.666666667 554.333333333 341.666666667 541 373 c 0
 531 397.666666667 522 414.666666667 514 424 c 1
 492.666666667 383.333333333 462 363 422 363 c 0
 396 363 372.666666667 371.5 352 388.5 c 128
 331.333333333 405.5 320 426.666666667 318 452 c 0
 314.666666667 502.666666667 328.333333333 553 359 603 c 1
 425.666666667 576.333333333 482.166666667 527.333333333 528.5 456 c 128
 574.833333333 384.666666667 598 312.666666667 598 240 c 0
 598 174.666666667 584.666666667 120 558 76 c 0
 528 25.3333333333 485.666666667 0 431 0 c 0
 401.666666667 0 377.666666667 5.66666666667 359 17 c 0
 345 25 329.666666667 39 313 59 c 1
 282.333333333 20.3333333333 244.666666667 0.666666666667 200 0 c 0
 156 -0.666666666667 119.333333333 14.8333333333 90 46.5 c 128
 60.6666666667 78.1666666667 46 115.333333333 46 158 c 0
 46 173.333333333 48 188.333333333 52 203 c 0
EndSplineSet
Fore
SplineSet
359 603 m 5xed80
 473 558 597.987304688 407 597.987304688 249.221679688 c 4
 597.987304688 123 553.344729094 0 426 0 c 4
 364 0 334.630436238 28.5207489381 313 59 c 5
 283.406198924 21.686076905 250 0 199 0 c 4
 97.9838045205 0 45.8804869702 81.1902905721 45.8804869702 161.999997835 c 4
 45.8804869702 212 71.0486818679 264.197947883 125 288 c 5
 15 288 l 5
 15 315 l 5
 258 315 l 5
 255.1640625 357.533203125 225 391.267578125 195 391.267578125 c 4xdd80
 177.364257812 391.267578125 162.118164062 387.385742188 148 363 c 4xed80
 137 344 123.646484375 339.263671875 110 339.263671875 c 4
 90 339.263671875 73.2109375 353 73.2109375 374.122070312 c 4
 73.2109375 414 120.100585938 432.166992188 162.279296875 432.166992188 c 4
 246.407226562 432.166992188 290.626953125 373.979492188 292 288 c 5
 220 288 l 6
 126.957367049 288 83.3915037787 230 83.3915037787 174.000001556 c 4
 83.3915037787 121.64183372 123.262203778 71 198 71 c 4
 247.046364159 71 299 95.1647551294 299 143 c 6
 299 178 l 5
 326 178 l 5
 326 143 l 6xde80
 326 97.0862774658 373.775105866 71 424 71 c 4
 520.489182971 71 561.143554688 159 561.143554688 263.217773438 c 4
 561.143554688 418 434 536 373 566 c 5
 361 552 347 515.234375 347 481 c 4
 347 422.5 376 393 424 393 c 4
 464 393 490 431.5 501 460 c 5
 518 430 l 5
 502 400 474 363 422 363 c 4
 356 363 318 411 318 477 c 4
 318 541 348 586 359 603 c 5xed80
EndSplineSet
Validated: 5
Layer: 2
SplineSet
537.143554688 293.217773438 m 4
 537.143554688 200 489 140 414 140 c 0
 353 140 328 164 328 200 c 2
 328 221 l 1
 297 221 l 1
 297 200 l 2
 297 161 267 140 203 140 c 0
 149.990234375 140 109.391601562 164 109.391601562 210 c 0
 109.391601562 234 130.95703125 285 224 285 c 2
 293 285 l 1
 292 377 242 432.166992188 163.279296875 432.166992188 c 0
 121.100585938 432.166992188 74.2109375 416 74.2109375 373.122070312 c 0
 74.2109375 351 89 335.263671875 113 335.263671875 c 0
 129 335.263671875 144 342 154 360 c 0
 169.203125 387.365234375 184 388.267578125 198 388.267578125 c 0
 222 388.267578125 253.1640625 357.533203125 256 315 c 1
 15 315 l 1
 15 285 l 1
 125 285 l 1
 71.048828125 261.198242188 45.8804869702 212 45.8804869702 161.999997835 c 0
 45.8804869702 81.1902905721 97.9838045205 0 199 0 c 0
 250 0 283.406198924 21.686076905 313 59 c 1
 334.630436238 28.5207489381 363.027670828 -0.0251311659364 427.655553183 -0.0251311659364 c 0
 547.007371766 -0.0251311659364 597.987304688 110 597.987304688 256.221679688 c 0
 597.987304688 402 473 558 359 603 c 1
 348 586 318 541 318 477 c 0
 318 411 356 363 422 363 c 0
 474 363 502 400 518 430 c 1
 499 462 l 1
 488 432.5 462 396 424 396 c 0
 378 396 350 424 350 481 c 0
 350 510 361 547 374 562 c 1
 435 532 537.143554688 422 537.143554688 293.217773438 c 4
EndSplineSet
Layer: 3
SplineSet
372 567 m 1
 355.333333333 545 347 514.666666667 347 476 c 0
 347 444.666666667 357 422.333333333 377 409 c 0
 393.666666667 398.333333333 409.333333333 393 424 393 c 0
 452 393 476.666666667 412 498 450 c 1
 486.666666667 467.333333333 469.333333333 487.666666667 446 511 c 0
 419.333333333 538.333333333 394.666666667 557 372 567 c 1
52 203 m 0
 57.3333333333 222.333333333 68 240.666666667 84 258 c 0
 98 273.333333333 111.333333333 283.333333333 124 288 c 1
 15 288 l 1
 15 315 l 1
 255 315 l 1
 255 333.666666667 249.5 349.666666667 238.5 363 c 128
 227.5 376.333333333 214.333333333 383 199 383 c 0
 193 383 187.333333333 381.666666667 182 379 c 0
 167.333333333 373 155.666666667 364.333333333 147 353 c 0
 141 345 129.333333333 340.333333333 112 339 c 0
 102.666666667 337 93.5 339.333333333 84.5 346 c 128
 75.5 352.666666667 71 360.666666667 71 370 c 0
 71 398 88.3333333333 416.666666667 123 426 c 0
 135.666666667 430 151.333333333 432 170 432 c 0
 208 432.666666667 237.5 419.666666667 258.5 393 c 128
 279.5 366.333333333 289.666666667 331.333333333 289 288 c 1
 195 288 l 2
 170.333333333 288 148.333333333 279 129 261 c 128
 109.666666667 243 100 223.333333333 100 202 c 0
 100 176 108.666666667 155 126 139 c 128
 143.333333333 123 167.333333333 115 198 115 c 0
 224 115 247 121.833333333 267 135.5 c 128
 287 149.166666667 297 167.333333333 297 190 c 2
 297 218 l 1
 326 218 l 1
 326 190 l 2
 326 167.333333333 336 149.166666667 356 135.5 c 128
 376 121.833333333 399 115 425 115 c 0
 469 115 503 131.333333333 527 164 c 0
 549.666666667 194.666666667 560.666666667 235.333333333 560 286 c 0
 559.333333333 312.666666667 552.666666667 341.666666667 540 373 c 0
 530.666666667 397.666666667 522 414.666666667 514 424 c 1
 492.666666667 383.333333333 462 363 422 363 c 0
 396 363 372.666666667 371.5 352 388.5 c 128
 331.333333333 405.5 320 426.666666667 318 452 c 0
 314.666666667 502.666666667 328.333333333 553 359 603 c 1
 425.666666667 576.333333333 482.166666667 527.333333333 528.5 456 c 128
 574.833333333 384.666666667 598 312.666666667 598 240 c 0
 598 174.666666667 584.666666667 120 558 76 c 0
 528 25.3333333333 485.666666667 0 431 0 c 0
 401.666666667 0 377.666666667 5.66666666667 359 17 c 0
 345 25 329.666666667 39 313 59 c 1
 282.333333333 20.3333333333 244.666666667 0.666666666667 200 0 c 0
 156 -0.666666666667 119.333333333 14.8333333333 90 46.5 c 128
 60.6666666667 78.1666666667 46 115.333333333 46 158 c 0
 46 173.333333333 48 188.333333333 52 203 c 0
EndSplineSet
EndChar

StartChar: s
Encoding: 115 115 15
Width: 963
Flags: HW
HStem: -0.787109 29.7871<755.533 826.522> 0 73<266.723 452.891> 36.4297 31.0986<607.676 683.579> 156 37.2305<280.606 381.066> 163.396 18.6035<307.827 405> 181 27<115 131.172> 256.472 29.0986<609.444 685.012> 310 37.7871<761.965 827.371> 408 25<285.843 436.361> 470 57<722.506 861.77>
VStem: 170 29<257.186 338.603> 267.396 28.834<215.713 292.271> 417.77 28.834<215.713 292.271> 548.841 28.5488<107.031 305.895> 713 19<61.6533 202.671> 720 21.1592<86 273.498> 852 63.3633<61.3873 287.684>
LayerCount: 4
Back
SplineSet
22 178 m 5
 33.3333333333 187.333333333 55.6666666667 202 89 222 c 4
 107.666666667 233.333333333 135 249 171 269 c 5
 170.333333333 275 170 280.666666667 170 286 c 4
 170 334 190 371.666666667 230 399 c 4
 264 421.666666667 306 433 356 433 c 4
 404 433 441 423.666666667 467 405 c 5
 523.666666667 432.333333333 591.666666667 460 671 488 c 4
 743.666666667 514 796 527 828 527 c 4
 851.333333333 527 863 518 863 500 c 4
 863 484.666666667 851.333333333 474.666666667 828 470 c 4
 798.666666667 465.333333333 750.333333333 456.333333333 683 443 c 4
 624.333333333 429.666666667 562.333333333 412 497 390 c 5
 518.333333333 377.333333333 539 355.666666667 559 325 c 4
 573 303.666666667 580 278.666666667 580 250 c 5
 597.333333333 277.333333333 624 289.333333333 660 286 c 4
 686.666666667 283.333333333 707 271.333333333 721 250 c 5
 723.666666667 280.666666667 734.666666667 304.666666667 754 322 c 132
 773.333333333 339.333333333 796.666666667 347.666666667 824 347 c 4
 861.333333333 345.666666667 887 321.333333333 901 274 c 4
 907 254 911.666666667 218.666666667 915 168 c 4
 917.666666667 123.333333333 909.333333333 84.8333333333 890 52.5 c 132
 870.666666667 20.1666666667 845.333333333 2.33333333333 814 -1 c 4
 764.666666667 -6.33333333333 730.666666667 15.6666666667 712 65 c 5
 695.333333333 45 672.666666667 35.3333333333 644 36 c 4
 604 37.3333333333 575 59.6666666667 557 103 c 5
 533.666666667 67.6666666667 508 42 480 26 c 4
 449.333333333 9.33333333333 411 0.666666666667 365 0 c 4
 311.666666667 -0.666666666667 269 11.6666666667 237 37 c 4
 217.666666667 52.3333333333 191.666666667 84.3333333333 159 133 c 4
 153 141.666666667 146.666666667 150.5 140 159.5 c 132
 133.333333333 168.5 124.333333333 175 113 179 c 4
 101.666666667 182.333333333 88 181.666666667 72 177 c 4
 62.6666666667 174.333333333 49.6666666667 166.666666667 33 154 c 5
 22 178 l 5
201 287 m 5
 223.666666667 299 261 317.666666667 313 343 c 4
 355.666666667 362.333333333 396.333333333 379.333333333 435 394 c 5
 413 402.666666667 386.666666667 407 356 407 c 4
 315.333333333 407 283 399.666666667 259 385 c 4
 218.333333333 361 199 328.333333333 201 287 c 5
372 341 m 5
 394 336.333333333 411.666666667 326 425 310 c 132
 438.333333333 294 445 275.666666667 445 255 c 4
 445 229 433.5 206.833333333 410.5 188.5 c 132
 387.5 170.166666667 360.333333333 160.333333333 329 159 c 4
 252.333333333 155.666666667 201.666666667 183.333333333 177 242 c 5
 163 234.666666667 142.333333333 223.333333333 115 208 c 5
 132.333333333 206 146.5 198.5 157.5 185.5 c 132
 168.5 172.5 179 159.666666667 189 147 c 4
 237.666666667 97.6666666667 291.333333333 73 350 73 c 4
 360.666666667 73 371.333333333 73.6666666667 382 75 c 4
 430 81.6666666667 468.333333333 97.3333333333 497 122 c 4
 528.333333333 148.666666667 545.666666667 182.666666667 549 224 c 4
 555 295.333333333 526.333333333 347 463 379 c 5
 452.333333333 375 439 369.666666667 423 363 c 4
 412.333333333 357.666666667 395.333333333 350.333333333 372 341 c 5
205 258 m 5
 211.666666667 237.333333333 224.333333333 220.666666667 243 208 c 4
 265 193.333333333 289 185.333333333 315 184 c 5
 286.333333333 194 269 212.666666667 263 240 c 4
 259 258.666666667 262.333333333 276.333333333 273 293 c 5
 205 258 l 5
581 206 m 5
 581 190 578.333333333 171.333333333 573 150 c 5
 573.666666667 129.333333333 581.333333333 110.666666667 596 94 c 4
 612 75.3333333333 631 67 653 69 c 4
 689 72.3333333333 707.666666667 104 709 164 c 4
 710.333333333 226 691.666666667 257.333333333 653 258 c 4
 618.333333333 258.666666667 594.333333333 241.333333333 581 206 c 5
739 199 m 5
 741.666666667 184.333333333 742.666666667 172.333333333 742 163 c 4
 740.666666667 139 736.333333333 117 729 97 c 5
 731 79.6666666667 738.833333333 63.6666666667 752.5 49 c 132
 766.166666667 34.3333333333 782.333333333 27.6666666667 801 29 c 4
 833 31.6666666667 849.666666667 69.6666666667 851 143 c 4
 851.666666667 185.666666667 849.666666667 220 845 246 c 4
 837 289.333333333 821.666666667 310 799 308 c 4
 759 304.666666667 739 268.333333333 739 199 c 5
292 258 m 4
 292 240 298.333333333 225.333333333 311 214 c 132
 323.666666667 202.666666667 337.666666667 197 353 197 c 4
 371.666666667 197 387.333333333 204 400 218 c 4
 410 228.666666667 415 241.666666667 415 257 c 4
 415 276.333333333 408 291.666666667 394 303 c 4
 382.666666667 313 369 318 353 318 c 4
 333.666666667 318 318.666666667 311.833333333 308 299.5 c 132
 297.333333333 287.166666667 292 273.333333333 292 258 c 4
EndSplineSet
Fore
SplineSet
737 169 m 4x83fe80
 737 144.10279328 734 125.806640625 734 105 c 4
 734 44 769 34 792 34 c 4
 843 34 852 95 852 169 c 4
 852 245 836 309 799 309 c 4
 748 309 737 245 737 169 c 4x83fe80
718 239 m 4x83fd80
 718 292 749 347.787109375 815 347.787109375 c 4
 881 347.787109375 915.36328125 264.7578125 915.36328125 168 c 4
 915.36328125 73 883 -0.787109375 800 -0.787109375 c 4
 742.994565687 -0.787109375 713 40 713 78 c 4x83fe80
 713 101.819335938 718 208.262695312 718 239 c 4x83fd80
577.389648438 162 m 4
 577.389648438 109.791992188 606.911132812 67.5283203125 644 67.5283203125 c 4x23fc80
 686.255859375 67.5283203125 710.610351562 105.122070312 710.610351562 162 c 4
 710.610351562 221.91015625 689.026367188 256.471679688 644 256.471679688 c 4
 606.911132812 256.471679688 577.389648438 214.208007812 577.389648438 162 c 4
548.840820312 161 m 4
 548.840820312 229.840820312 591.45703125 285.5703125 645 285.5703125 c 4
 710 285.5703125 741.159179688 240 741.159179688 161 c 4x23fd80
 741.159179688 86 706 36.4296875 645 36.4296875 c 4
 591.45703125 36.4296875 548.840820312 92.1591796875 548.840820312 161 c 4
296.23046875 254 m 4
 296.23046875 220.009765625 323.009765625 193.23046875 357 193.23046875 c 4x13fc80
 390.990234375 193.23046875 417.76953125 220.009765625 417.76953125 254 c 4
 417.76953125 287.990234375 390.990234375 314.76953125 357 314.76953125 c 4
 323.009765625 314.76953125 296.23046875 287.990234375 296.23046875 254 c 4
267.396484375 253 m 4
 267.396484375 302.172851562 307.827148438 342.603515625 357 342.603515625 c 4
 406.172851562 342.603515625 446.603515625 302.172851562 446.603515625 253 c 4
 446.603515625 203.827148438 406.172851562 163.396484375 357 163.396484375 c 4x0bfc80
 307.827148438 163.396484375 267.396484375 203.827148438 267.396484375 253 c 4
350 73 m 4x47fc80
 456.877214768 73 549 133 549 237 c 4
 549 330 481.552734375 408 357 408 c 4
 269.047851562 408 199 360 199 288 c 4
 199 213 264 182 322 182 c 5x4bfc80
 405 178 l 5
 384 164 362 156 321 156 c 4x13fc80
 232 156 170 207.99333363 170 283 c 4
 170 382 258.142578125 433 359 433 c 4
 440 433 584 390 584 213 c 4
 584 114 520 0 365 0 c 4
 167 0 180 181 99 181 c 4
 71 181 54 168 33 154 c 5
 22 178 l 5
 213 306 426.094726562 401.813476562 653 483 c 4
 725.666992188 509 796 527 828 527 c 4
 851.333333333 527 863 518 863 500 c 4
 863 484.666666667 851.333333333 474.666666667 828 470 c 4
 798.666666667 465.333333333 750.516558006 455.372144137 683 443 c 4
 492 408 278 301 115 208 c 5
 176 208 194 73 350 73 c 4x47fc80
EndSplineSet
Layer: 2
Layer: 3
EndChar

StartChar: t
Encoding: 116 116 16
Width: 731
Flags: HW
LayerCount: 4
Back
SplineSet
163.2109375 374.122070312 m 0
 163.2109375 414 210.100585938 432.166992188 252.279296875 432.166992188 c 0
 336.407226562 432.166992188 380.626953125 373.979492188 382 288 c 1
 307 288 l 2
 213.95703125 288 170.391601562 230 170.391601562 174 c 0
 170.391601562 121.641601562 210.26171875 71 285 71 c 0
 334.045898438 71 386 95.1650390625 386 143 c 2
 386 178 l 1
 413 178 l 1
 413 143 l 2
 413 97.0859375 460.775390625 71 511 71 c 0
 607.489257812 71 649.143554688 167.485351562 649.143554688 273.217773438 c 0
 649.143554688 428 543 556.08984375 385.46484375 556.08984375 c 0
 304.965820312 556.08984375 240.203125 524.90234375 193 468 c 1
 160 468 l 1
 214.2578125 545.93359375 296.737304688 582.020507812 391.119140625 582.020507812 c 0
 565.635742188 582.020507812 684.987304688 444 684.987304688 258.221679688 c 0
 684.987304688 126.286132812 634.0078125 -0.025390625 514.655273438 -0.025390625 c 0
 450.02734375 -0.025390625 421.630859375 28.5205078125 400 59 c 1
 370.40625 21.6865234375 337 0 286 0 c 0
 184.983398438 0 132.880859375 81.1904296875 132.880859375 162 c 0
 132.880859375 212 158.048828125 264.198242188 212 288 c 1
 102 288 l 1
 102 315 l 1
 348 315 l 1
 345.1640625 357.533203125 315 391.267578125 285 391.267578125 c 0
 267.364257812 391.267578125 252.118164062 387.385742188 238 363 c 0
 227 344 213.646484375 339.263671875 200 339.263671875 c 0
 180 339.263671875 163.2109375 353 163.2109375 374.122070312 c 0
293 427 m 1
 272 416 194 406 177 400 c 1
 102 382 56 319.267578125 56 218 c 0
 56 137.333007812 83 75.3330078125 135 30 c 1
 135 0 l 1
 68.5828449348 33.2085775326 27 120.069879655 27 221 c 0
 27 352.699751668 99.7561968728 433 239 433 c 0
 248 433 271 433 293 427 c 1
EndSplineSet
Fore
SplineSet
163.2109375 374.122070312 m 4
 163.2109375 414 210.100585938 432.166992188 252.279296875 432.166992188 c 4
 336.407226562 432.166992188 380.626953125 373.979492188 382 288 c 5
 307 288 l 6
 213.95703125 288 170.391601562 230 170.391601562 174 c 4
 170.391601562 121.641601562 210.26171875 71 285 71 c 4
 334.045898438 71 386 95.1650390625 386 143 c 6
 386 178 l 5
 413 178 l 5
 413 143 l 6
 413 97.0859375 460.775390625 71 511 71 c 4
 607.489257812 71 649.143554688 167.485351562 649.143554688 273.217773438 c 4
 649.143554688 428 543 556.08984375 385.46484375 556.08984375 c 4
 304.965820312 556.08984375 240.203125 524.90234375 193 468 c 5
 160 468 l 5
 214.2578125 545.93359375 296.737304688 582.020507812 391.119140625 582.020507812 c 4
 565.635742188 582.020507812 684.987304688 444 684.987304688 258.221679688 c 4
 684.987304688 126.286132812 634.0078125 -0.025390625 514.655273438 -0.025390625 c 4
 450.02734375 -0.025390625 421.630859375 28.5205078125 400 59 c 5
 370.40625 21.6865234375 337 0 286 0 c 4
 184.983398438 0 132.880859375 81.1904296875 132.880859375 162 c 4
 132.880859375 212 158.048828125 264.198242188 212 288 c 5
 102 288 l 5
 102 315 l 5
 348 315 l 5
 345.1640625 357.533203125 315 391.267578125 285 391.267578125 c 4
 267.364257812 391.267578125 252.118164062 387.385742188 238 363 c 4
 227 344 213.646484375 339.263671875 200 339.263671875 c 4
 180 339.263671875 163.2109375 353 163.2109375 374.122070312 c 4
293 427 m 5
 272 416 194 406 177 400 c 5
 102 382 56 319.267578125 56 218 c 4
 56 137.333007812 83 75.3330078125 135 30 c 5
 135 0 l 5
 68.5828449348 33.2085775326 27 120.069879655 27 221 c 4
 27 352.699751668 99.7561968728 433 239 433 c 4
 248 433 271 433 293 427 c 5
EndSplineSet
Layer: 2
Layer: 3
EndChar

StartChar: b
Encoding: 98 98 17
Width: 593
Flags: W
HStem: -160.272 22.8648<248.913 348.919> -14.6465 28.0713<249 337.071> 54 26.9805<153.59 299.028> 104.979 28.0215<253.931 322.608> 231 28.6836<253.578 322.745> 357.365 74.8647<168.676 393.085>
VStem: 32.7693 40.651<140.699 275.285> 172.568 62.4322<-128.639 -40.9783> 208 30<147.931 216.488> 338 38<125.984 219.631> 375.053 63.9665<-122.792 -38.7699> 506 38.0727<109.529 253.779>
LayerCount: 4
Back
Fore
SplineSet
273.107421875 13.4248046875 m 4xff30
 289.881835938 13.4248046875 306.879979999 11.3077791959 324.407906495 11.3077791959 c 4
 423.445479405 11.3077791959 506 72.2427249302 506 179 c 4
 506 292.451180536 404.848523881 357.365080788 285.138234493 357.365080788 c 4
 174.761412308 357.365080788 73.420326121 308.982448025 73.420326121 204.134968762 c 4
 73.420326121 133.530159124 136.393554688 80.98046875 222.573242188 80.98046875 c 4
 276 80.98046875 317 96 333 120 c 5
 318 108 299.454101562 104.978515625 285.064453125 104.978515625 c 4
 244 104.978515625 208 138.5703125 208 179 c 4
 208 225.263671875 242 259.68359375 286.35546875 259.68359375 c 4
 343.78515625 259.68359375 376 221.615234375 376 170 c 4xfed0
 376 90 310 54 220 54 c 4
 113 54 32.769301342 116.842503605 32.769301342 220.978179218 c 4
 32.769301342 356.900041772 140.744852569 432.229789777 284.186584566 432.229789777 c 4
 443.73633693 432.229789777 544.072655356 353.230064025 544.072655356 198.289822617 c 4
 544.072655356 92.3992805878 472.804973932 9.9053684654 384 -6 c 5
 417.360050834 -12.0654637881 439.019305478 -35.5646106219 439.019305478 -74.6171329825 c 4
 439.019305478 -134.43844808 364.215441002 -160.272357038 298.362581423 -160.272357038 c 4
 236.041211731 -160.272357038 172.567829085 -139.055521608 172.567829085 -75.6591555653 c 4
 172.567829085 -50.1902726369 190.396707259 -38.4572252022 206.999999554 -38.4572252022 c 4
 222 -38.4572252022 235 -47.772668172 235 -65 c 4
 235 -70.548340286 231.33117885 -81.8987817032 231.33117885 -93.9999994603 c 4
 231.33117885 -114 242.210661318 -137.40759163 300.488905387 -137.40759163 c 4
 339.383175946 -137.40759163 375.052783758 -120.936614414 375.052783758 -83.377550246 c 4
 375.052783758 -40.6169352357 334.405273438 -14.646484375 267.46875 -14.646484375 c 4
 258.713867188 -14.646484375 258.543945312 -15.0908203125 249 -16 c 5
 249 12 l 5
 260.678710938 12.9736328125 262.404296875 13.4248046875 273.107421875 13.4248046875 c 4xff30
288 231 m 4
 260.409179688 231 238 208.654296875 238 182 c 4
 238 154.345703125 261.333007812 133 288 133 c 4
 315.590820312 133 338 155.345703125 338 182 c 4
 338 209.654296875 314.666992188 231 288 231 c 4
EndSplineSet
Validated: 1
Layer: 2
SplineSet
273.107421875 15.4248046875 m 4
 289.881835938 15.4248046875 304.879882812 13.3076171875 322.408203125 13.3076171875 c 4
 420 13.3076171875 479 72 479 154 c 4
 479 240 412 314 285 314 c 4
 168 314 99.419921875 268 99.419921875 185.134765625 c 4
 99.419921875 134 146 81.98046875 231.573242188 81.98046875 c 4
 280 81.98046875 310 92 326 111 c 5
 315 102 299.454101562 97.978515625 285.064453125 97.978515625 c 4
 241 97.978515625 206 132.5703125 206 173 c 4
 206 219.263671875 240 254.68359375 286.35546875 254.68359375 c 4
 343.78515625 254.68359375 378 218 378 164 c 4
 378 84 310 54 220 54 c 4
 113 54 32.769301342 116.842503605 32.769301342 220.978179218 c 4
 32.769301342 356.900041772 140.744852569 432.229789777 284.186584566 432.229789777 c 4
 443.73633693 432.229789777 544.072655356 353.230064025 544.072655356 198.289822617 c 4
 544.072655356 92.3992805878 472.804973932 9.9053684654 384 -6 c 5
 417.360050834 -12.0654637881 439.019305478 -35.5646106219 439.019305478 -74.6171329825 c 4
 439.019305478 -134.43844808 364.215441002 -160.272357038 298.362581423 -160.272357038 c 4
 236.041211731 -160.272357038 172.567829085 -139.055521608 172.567829085 -75.6591555653 c 4
 172.567829085 -50.1902726369 191.396484375 -38.45703125 208 -38.45703125 c 4
 223 -38.45703125 239 -47.7724609375 239 -65 c 4
 239 -70.548828125 235.331054688 -81.8984375 235.331054688 -94 c 4
 235.331054688 -114 247 -135.407226562 300.489257812 -135.407226562 c 4
 339.3828125 -135.407226562 362.052734375 -116 362.052734375 -83.3779296875 c 4
 362.052734375 -44 334.405273438 -14.646484375 267.46875 -14.646484375 c 4
 258.713867188 -14.646484375 258.543945312 -15.0908203125 249 -16 c 5
 249 14 l 5
 260.678710938 14.9736328125 262.404296875 15.4248046875 273.107421875 15.4248046875 c 4
288 225 m 4
 260.409179688 225 238 202.654296875 238 176 c 4
 238 148.345703125 261.333007812 127 288 127 c 4
 315.590820312 127 338 149.345703125 338 176 c 4
 338 203.654296875 314.666992188 225 288 225 c 4
EndSplineSet
Layer: 3
EndChar

StartChar: a
Encoding: 97 97 18
Width: 597
Flags: W
HStem: 0 71<169.041 413.748> 277 25<14.7727 287> 395 36.5<169.289 260.238> 470 21G<84 138.333> 553 24<221.6 374.599>
VStem: 64 37<127.613 229.669> 83 74.5<326.522 386.562> 287.086 32.0605<302 363.922> 541 34<206.865 380.435>
LayerCount: 4
Back
SplineSet
319 274 m 1
 269 274 l 2
 214 274 182 267 159 254 c 0
 134.361328125 240.07421875 127 225 127 207 c 0
 127 161 208 140 298 140 c 0
 451 140 517 221 517 327 c 0
 517 441 437.498046875 550 303 550 c 0
 223.666992188 550 162 520 120 470 c 1
 84 470 l 1
 132.666992188 540 205 577 303 577 c 0
 463.151367188 577 575 443 575 274 c 0
 575 114 478 0 295 0 c 0
 174 0 64 46 64 165 c 0
 64 195.720344964 73.7752888432 227.83117189 97 248 c 0
 113.127026077 262.005048961 132 273 158 278 c 1
 191.760742188 290.19921875 232.875230528 302 270 302 c 2
 284 302 l 1
 284.08203125 304.041015625 284.0859375 306.041015625 284.0859375 308 c 0
 284.0859375 358 250 387 219 387 c 128
 192 387 176 371 170.5 355 c 128
 163.951171875 335.948242188 151 320 122 320 c 0
 102 320 83 333.368164062 83 359 c 0
 83 406 133 431.5 188 431.5 c 0
 276 431.5 319.146484375 376 319.146484375 290 c 0
 319.146484375 286.721679688 319.100585938 277.387695312 319 274 c 1
148 274 m 2
 77 273 29 269.666992188 13 267 c 1
 13 302 l 1
 282 302 l 1
 315 274 l 1
 148 274 l 2
EndSplineSet
Fore
SplineSet
319 277 m 5xfb80
 250 277 l 6
 205.559570312 277 166.1171875 264.814453125 141 249 c 4
 114 232 101 206.05078125 101 180 c 4
 101 94 208 71 298 71 c 4
 451 71 541 158 541 300 c 4
 541 442 437.498046875 553 303 553 c 4
 223.666992188 553 160.666992188 524.666992188 116 470 c 5
 84 470 l 5
 132.666992188 540 205 577 303 577 c 4
 463.151367188 577 575 443 575 274 c 4
 575 114 478 0 295 0 c 4
 174 0 64 46 64 165 c 4xfd80
 64 195.720703125 73.775390625 227.831054688 97 248 c 4
 113.126953125 262.004882812 132 273 158 278 c 5
 191.760742188 290.19921875 232.875 302 270 302 c 6
 287 302 l 5
 287.08203125 304.041015625 287.0859375 306.041015625 287.0859375 308 c 4
 287.0859375 362 253 395 216 395 c 4
 171 395 163 371 157.5 355 c 4
 150.951171875 335.948242188 140.87109375 323 119 323 c 4
 103 323 83 333.368164062 83 359 c 4
 83 406 133 431.5 188 431.5 c 4
 276 431.5 319.146484375 376 319.146484375 290 c 4
 319.146484375 286.721679688 319.100585938 280.387695312 319 277 c 5xfb80
148 277 m 6
 77 276 30 272.666992188 14 270 c 5
 14 302 l 5
 285 302 l 5
 315 277 l 5
 148 277 l 6
EndSplineSet
Validated: 5
Layer: 2
SplineSet
319 274 m 5
 271 274 l 6
 216 274 184 266 161 254 c 4
 132.712890625 239.241210938 128 220 128 207 c 4
 128 158 208 140 298 140 c 4
 451 140 517 218 517 329 c 4
 517 442 437.498046875 551 303 551 c 4
 223.666992188 551 163 522 119 470 c 5
 84 470 l 5
 132.666992188 540 205 577 303 577 c 4
 463.151367188 577 575 443 575 274 c 4
 575 114 478 0 295 0 c 4
 174 0 64 46 64 165 c 4
 64 195.720344964 73.7752888432 227.83117189 97 248 c 4
 113.127026077 262.005048961 132 273 158 278 c 5
 191.760742188 290.19921875 232.875230528 302 270 302 c 6
 284 302 l 5
 284.08203125 304.041015625 284.0859375 306.041015625 284.0859375 308 c 4
 284.0859375 358 252 389 220 389 c 132
 186 389 173 371 167.5 355 c 132
 160.951171875 335.948242188 150 320 121 320 c 4
 101 320 83 333.368164062 83 359 c 4
 83 406 133 431.5 188 431.5 c 4
 276 431.5 319.146484375 376 319.146484375 290 c 4
 319.146484375 286.721679688 319.100585938 277.387695312 319 274 c 5
148 274 m 6
 77 273 29 269.666992188 13 267 c 5
 13 302 l 5
 282 302 l 5
 315 274 l 5
 148 274 l 6
EndSplineSet
Layer: 3
SplineSet
282 301 m 5xbf
 284 301 l 6
 284 303 284 305 284 307 c 4
 284 356 254 389 219 389 c 4
 185 389 172 370 167 354 c 4
 160 335 153 319 122 319 c 4
 100 319 83 332 83 358 c 4
 83 405 133 431 188 431 c 4
 276 431 319 375 319 289 c 4
 319 286 319 277 319 273 c 5
 315 273 l 5
 275 273 l 6xbf
 217 273 186 267 163 256 c 4
 135 242 127 223 127 208 c 4
 127 164 208 150 298 150 c 4
 451 150 518 222 518 330 c 4
 518 442 438 549 303 549 c 4
 224 549 162 520 119 469 c 5
 84 469 l 5
 133 539 205 576 303 576 c 4
 463 576 575 442 575 273 c 4
 575 113 478 -1 295 -1 c 4
 174 -1 64 45 64 164 c 4
 64 195 74 227 97 247 c 4
 110 258 125 268 143 273 c 5
 75 272 28 269 13 266 c 5
 13 301 l 5xdf
 270 301 l 5
 282 301 l 5xbf
EndSplineSet
EndChar

StartChar: w
Encoding: 119 119 20
Width: 647
Flags: W
HStem: 0 71<124.316 272.26 352.663 495.599> 288 27<15 127 155.35 261> 391.268 40.8998<156.839 236.43> 475 24<482 505.269> 611 59<148.279 400.608>
VStem: 46 37<117.867 230.382> 77 41<523.195 586.765> 299 27<106.668 178> 383 33<515.352 590.855> 526 35<512.871 591.878> 562 36<160.289 363.51>
LayerCount: 4
Back
Fore
SplineSet
261 315 m 5xfde0
 258.1640625 357.533203125 228 391.267578125 198 391.267578125 c 4
 180.364257812 391.267578125 165.118202841 387.385986725 151 363 c 4
 140 344 126.646484375 339.263671875 113 339.263671875 c 4
 93 339.263671875 76.2109375 353 76.2109375 374.122070312 c 4
 76.2109375 414 123.100792732 432.167358968 165.27885421 432.167358968 c 4
 249.407348514 432.167358968 295 368 295 288 c 5
 224 288 l 6
 136 288 83 234.039210145 83 176 c 4xfde0
 83 116.447992456 128 71 198 71 c 4
 247.046364158 71 299 95.1647551302 299 143 c 6
 299 178 l 5
 326 178 l 5
 326 143 l 6
 326 97.1765651076 373.803857399 71 424 71 c 4
 527 71 562 171.683846473 562 267 c 4
 562 443 455.06537025 468.008209131 324 476 c 4
 242 481 77 461 77 564 c 4xfbe0
 77 639 168 670 307 670 c 4
 444 670 561 645 561 552 c 4
 561 511 525.029153347 475 482 475 c 5
 553.2159841 441.765874087 598 366.379933741 598 255 c 4
 598 140.589447825 552 0 431 0 c 4
 369.285699916 0 344.342973794 21.3884314468 313 59 c 5
 282.333333333 20.3333333333 246 0 198 0 c 4
 111.406083101 0 46 72.5786159156 46 158 c 4
 46 217.61397783 77 266 127 288 c 5
 15 288 l 5
 15 315 l 5
 261 315 l 5xfde0
416 553 m 4
 416 522.541751994 441.594773551 499 472 499 c 4
 501.358525628 499 526 520.329065686 526 554 c 4
 526 582.547297586 503.978515374 607 471 607 c 4
 441.102627742 607 416 582.60301559 416 553 c 4
412 494 m 5
 394 506 383 528.666992188 383 554 c 4
 383 572.666992188 390 590 404 606 c 5
 370.666992188 609.333007812 331.333333333 611 294 611 c 4
 232 611 118 607.885828164 118 556 c 4xfbe0
 118 507 199 504 241 504 c 4
 283.011903075 504 361 503 412 494 c 5
EndSplineSet
Validated: 1
Layer: 2
SplineSet
105.391601562 205 m 0
 105.391601562 165 129 132 199 132 c 0
 248.045898438 132 298 145 298 196 c 2
 298 215 l 1
 327 215 l 1
 327 196 l 2
 327 147 375.804284641 132 426 132 c 0
 519 132 546 229 546 286 c 0
 546 431.5 451 454 324 459 c 0
 184.978264205 464.473296685 77 458 77 554 c 0
 77 639 168 670 307 670 c 0
 444 670 561 643 561 544 c 0
 561 503 534 466 482 460 c 1
 553.215820312 426.765625 598 366.379933741 598 255 c 0
 598 140.589447825 552 0 431 0 c 0
 369.285699916 0 344.342973794 21.3884314468 313 59 c 1
 282.333333333 20.3333333333 246 0 198 0 c 0
 111.406083101 0 46 72.5786159156 46 158 c 0
 46 211 71.048828125 262.198242188 125 286 c 1
 15 286 l 1
 15 315 l 1
 259 315 l 1
 256.1640625 357.533203125 226 388.267578125 198 388.267578125 c 0
 184 388.267578125 168.203125 387.365234375 153 360 c 0
 143 342 130 337.263671875 114 337.263671875 c 0
 94 337.263671875 76.2109375 351 76.2109375 373.122070312 c 0
 76.2109375 416 123.100585938 432.166992188 165.279296875 432.166992188 c 0
 244 432.166992188 294 378 295 286 c 1
 224 286 l 2
 130.95703125 286 105.391601562 236 105.391601562 205 c 0
412 525 m 0
 412 502 432 484 464 484 c 0
 496 484 518 498 518 522 c 0
 518 553 490 567 463 567 c 0
 430 567 412 547 412 525 c 0
409 479 m 1
 386 489 379 514 379 526 c 0
 379 544.666992188 383 560 396 574 c 1
 362.666992188 577.333007812 324.333007812 580 287 580 c 0
 225 580 138 569 138 526 c 0
 138 508 150 490 273 489 c 0
 315.010330369 488.658452599 375 486 409 479 c 1
EndSplineSet
Layer: 3
EndChar

StartChar: c
Encoding: 99 99 21
Width: 573
Flags: W
HStem: -4 27<205.486 385.383> 200 29<388.393 447.237> 287 22<189.916 252> 393 40<196.956 288.512>
VStem: 33 80<89.0738 235.039> 316 31.023<309 357.673> 359 29<313 377.002> 384 4<207 235> 421.451 23.549<381.434 405.995> 464 62<238.925 337.441>
LayerCount: 4
Back
Fore
SplineSet
428 200 m 0xfdc0
 479.320433706 200 526 228.79640641 526 281 c 0
 526 354 445 369 445 403 c 0
 445 414 450 418 457 422 c 1
 438 418 l 0
 422 404 l 1
 421.681802112 401.93171373 421.450986646 399.934865834 421.450986646 398 c 0
 421.450986646 371 437.325961395 361.900561124 448 345 c 0
 460 326 464 311 464 287 c 0
 464 249 440.170365761 229 411 229 c 0
 403.666666667 229 393 230 384 235 c 9
 384 207 l 17
 400 202 414.666666667 200 428 200 c 0xfdc0
462 424 m 1
 439 435 l 1
 419 429.666666667 401.333333333 418.333333333 386 401 c 0
 368 379.666666667 359 350 359 313 c 0
 359 137 359 -39 359 -215 c 1xfec0
 388 -215 l 1xfdc0
 388 315 l 2xfec0
 388 352 392 393 462 424 c 1
523 51 m 1
 523 83 l 1
 480 50 410 23 297 23 c 0
 161 23 113 88 113 164 c 0
 113 200 130 287 252 287 c 2
 347 287 l 1
 347.014753113 288.003211652 347.022958637 289.003232324 347.022958637 289.999996282 c 0
 347.022958637 382 295 433 211 433 c 0
 154 433 106 410 106 369 c 0
 106 344.66015625 125 331 147 331 c 0
 172 331 183 347 188 358 c 0
 196.04296875 375.694335938 205 393 241 393 c 0
 287 393 314.512785982 352.872813538 316 309 c 1
 202 309 l 2
 94 309 33 248 33 160 c 0
 33 62 118 -4 282 -4 c 0
 386 -4 472 17 523 51 c 1
EndSplineSet
Validated: 5
Layer: 2
SplineSet
430 198 m 4
 481 198 529 225 529 281 c 4
 529 359 445 369 445 403 c 4
 445 414 451 418 457 421 c 5
 438 418 l 4
 420 403 l 5
 419.681640625 400.931640625 419.451171875 394.934570312 419.451171875 393 c 4
 419.451171875 376 424 362 435 346 c 4
 446.78870115 328.852798327 452 314 452 291 c 4
 452 256 434 231 407 231 c 4
 396 231 391 232 384 235 c 13
 384 203 l 21
 397 200 411 198 430 198 c 4
464 424 m 5
 439 435 l 5
 419 429.666666667 398.125818599 417.514105747 383 400 c 4
 364 378 356 350 356 313 c 4
 356 137 356 -39 356 -215 c 5
 388 -215 l 5
 388 311 l 6
 388 350 393 394 464 424 c 5
523 51 m 5
 523 85 l 5
 480 52 418 35 335 35 c 4
 242 35 187 88 187 164 c 4
 187 200 201 285 309 285 c 6
 344 285 l 5
 344.014648438 286.002929688 344.0234375 289.002929688 344.0234375 290 c 4
 344.0234375 382 295 433 211 433 c 4
 154 433 106 410 106 369 c 4
 106 344.66015625 126 328 148 328 c 4
 176 328 190.188476562 344.376953125 197 358 c 4
 203 370 211 387 244 387 c 4
 284 387 310 348 311 309 c 5
 202 309 l 6
 94 309 33 248 33 160 c 4
 33 62 118 -4 282 -4 c 4
 386 -4 472 17 523 51 c 5
EndSplineSet
Layer: 3
EndChar

StartChar: d
Encoding: 100 100 22
Width: 597
Flags: HW
HStem: 0 71<139.375 385.923> 280 24<135.303 260> 395 36.5<142.289 233.238> 470 21G<57 111.333> 553 24<194.6 347.599>
VStem: 33 35<128.968 231.998> 56 74.5<326.522 386.562> 260.086 32.0601<304 363.922> 514 34<206.865 380.435>
LayerCount: 4
Back
Fore
SplineSet
292 280 m 5xfb80
 202 280 l 6
 128 280 68 245.215820312 68 180 c 4
 68 94 180 71 270 71 c 4
 423 71 514 158 514 300 c 4
 514 442 410.498046875 553 276 553 c 4
 196.666992188 553 133.666992188 524.666992188 89 470 c 5
 57 470 l 5
 105.666666667 540 178 577 276 577 c 4
 436.151392369 577 548 443 548 274 c 4
 548 114 450 0 267 0 c 4
 146 0 33 46 33 165 c 4xfd80
 33 250 98 304 199 304 c 6
 260 304 l 5
 260.08203125 306.041015625 260.0859375 306.041015625 260.0859375 308 c 4
 260.0859375 362 226 395 189 395 c 4
 144 395 136 371 130.5 355 c 4
 123.950844566 335.947911466 113.871196443 323 92 323 c 4
 76 323 56 333.368164062 56 359 c 4
 56 406 106 431.5 161 431.5 c 4
 249 431.5 292.146076529 376 292.146076529 290.0000267 c 4
 292.146076529 286.721575577 292.100390271 283.38817163 292 280 c 5xfb80
EndSplineSet
Layer: 2
SplineSet
292 277 m 5
 211 277 l 6
 137 277 101 250 101 213 c 4
 101 151 196 140 270 140 c 4
 423 140 491 211 491 317 c 4
 491 436 410.498046875 551 276 551 c 4
 196.666992188 551 136 522 92 470 c 5
 57 470 l 5
 105.666666667 540 178 577 276 577 c 4
 436.151392369 577 548 443 548 274 c 4
 548 114 450 0 267 0 c 4
 146 0 33 46 33 165 c 4
 33 250 98 304 199 304 c 6
 256 304 l 5
 256.08203125 306.041015625 256.0859375 306.041015625 256.0859375 308 c 4
 256.0859375 358 224 387 191 387 c 132
 157 387 146 371 140.5 355 c 132
 133.951171875 335.948242188 122 319 96 319 c 4
 73 319 56 333.368164062 56 359 c 4
 56 406 106 431.5 161 431.5 c 4
 249 431.5 292.146076529 376 292.146076529 290.0000267 c 4
 292.146076529 286.721575577 292.100585938 280.387695312 292 277 c 5
EndSplineSet
Layer: 3
EndChar

StartChar: e
Encoding: 101 101 23
Width: 528
Flags: W
HStem: 0 73<150.092 330.785> 403.653 26.6934<419.34 475.966> 414 23<248.774 329.114> 473.653 26.6934<154.34 210.966> 506.341 26.0059<419.643 475.664> 576.341 26.0059<154.643 210.664> 603 20G<391.5 417>
VStem: 31 35<162.048 300.64> 118.307 26.3496<509.859 566.485> 220.65 26.3496<509.859 566.485> 383.307 26.3496<439.859 496.485> 430 52<169.286 321.484> 485.65 26.3496<439.859 496.485>
LayerCount: 4
Back
Fore
SplineSet
409.65625 468.34375 m 4xdff8
 409.65625 447.361328125 426.670898438 430.346679688 447.653320312 430.346679688 c 4
 468.635742188 430.346679688 485.650390625 447.361328125 485.650390625 468.34375 c 4
 485.650390625 489.326171875 468.635742188 506.340820312 447.653320312 506.340820312 c 4
 426.670898438 506.340820312 409.65625 489.326171875 409.65625 468.34375 c 4xdff8
383.306640625 468 m 4
 383.306640625 503.534179688 412.119140625 532.346679688 447.653320312 532.346679688 c 4
 483.1875 532.346679688 512 503.534179688 512 468 c 4
 512 432.465820312 483.1875 403.653320312 447.653320312 403.653320312 c 4
 412.119140625 403.653320312 383.306640625 432.465820312 383.306640625 468 c 4
144.65625 538.34375 m 4
 144.65625 517.361328125 161.670898438 500.346679688 182.653320312 500.346679688 c 4
 203.635742188 500.346679688 220.650390625 517.361328125 220.650390625 538.34375 c 4
 220.650390625 559.326171875 203.635742188 576.340820312 182.653320312 576.340820312 c 4
 161.670898438 576.340820312 144.65625 559.326171875 144.65625 538.34375 c 4
118.306640625 538 m 4
 118.306640625 573.534179688 147.119140625 602.346679688 182.653320312 602.346679688 c 4
 218.1875 602.346679688 247 573.534179688 247 538 c 4
 247 502.465820312 218.1875 473.653320312 182.653320312 473.653320312 c 4
 147.119140625 473.653320312 118.306640625 502.465820312 118.306640625 538 c 4
170 422 m 4
 223.263083971 449.696803665 250.105838186 465.264791571 308 517 c 4
 355 559 374 623 409 623 c 4
 425 623 432 616.333007812 432 605 c 4
 432 585 408.666666667 555.666666667 360 515 c 4
 327.333333333 487.666666667 289.666666667 461.333333333 247 436 c 5
 252 437 253.262695312 437 262 437 c 4xbff8
 333 437 388 413 429.5 366.5 c 4
 465.350590935 326.33006076 482 281.003971989 482 225 c 4
 482 102 383.523302632 0 248 0 c 4
 123.953919804 0 31 89.1821923439 31 213 c 4
 31 322.52211473 95.4624211491 380.154341698 170 422 c 4
66 237 m 4
 66 143.671016059 131.981483069 73 240 73 c 4
 345 73 430 149 430 254 c 4
 430 356 355.594726562 414 264 414 c 4
 166.78125 414 66 339.359738008 66 237 c 4
EndSplineSet
Validated: 1
Layer: 2
SplineSet
410.416015625 468.34375 m 4
 410.416015625 447.78125 427.090820312 431.106445312 447.653320312 431.106445312 c 4
 468.215820312 431.106445312 484.890625 447.78125 484.890625 468.34375 c 4
 484.890625 488.90625 468.215820312 505.581054688 447.653320312 505.581054688 c 4
 427.090820312 505.581054688 410.416015625 488.90625 410.416015625 468.34375 c 4
382.01953125 468 m 4
 382.01953125 504.245117188 411.408203125 533.633789062 447.653320312 533.633789062 c 4
 483.8984375 533.633789062 513.287109375 504.245117188 513.287109375 468 c 4
 513.287109375 431.754882812 483.8984375 402.366210938 447.653320312 402.366210938 c 4
 411.408203125 402.366210938 382.01953125 431.754882812 382.01953125 468 c 4
145.416015625 538.34375 m 4
 145.416015625 517.78125 162.090820312 501.106445312 182.653320312 501.106445312 c 4
 203.215820312 501.106445312 219.890625 517.78125 219.890625 538.34375 c 4
 219.890625 558.90625 203.215820312 575.581054688 182.653320312 575.581054688 c 4
 162.090820312 575.581054688 145.416015625 558.90625 145.416015625 538.34375 c 4
117.01953125 538 m 4
 117.01953125 574.245117188 146.408203125 603.633789062 182.653320312 603.633789062 c 4
 218.8984375 603.633789062 248.287109375 574.245117188 248.287109375 538 c 4
 248.287109375 501.754882812 218.8984375 472.366210938 182.653320312 472.366210938 c 4
 146.408203125 472.366210938 117.01953125 501.754882812 117.01953125 538 c 4
170 422 m 4
 223.263083971 449.696803665 256 482 285 518 c 4
 303.26171875 540.669921875 313.45703125 564.822265625 324.33984375 585 c 4
 337.055664062 608.578125 354.590820312 629 388 629 c 4
 414 629 430 611 430 594 c 4
 430 574 407.640543289 549.698339844 359 509 c 4
 326.333007812 481.666992188 294 462 247 436 c 5
 252 437 253.262695312 437 262 437 c 4
 333 437 388 413 429.5 366.5 c 132
 465.350590935 326.33006076 482 281.003971989 482 225 c 4
 482 102 383.523302632 0 248 0 c 4
 123.953919804 0 31 89.1821923439 31 213 c 4
 31 322.52211473 94.1602958814 382.563353858 170 422 c 4
79 256 m 4
 79 198 119.981445312 138 228 138 c 4
 333 138 406 191 406 291 c 4
 406 362 351.594726562 411 260 411 c 4
 182 411 79 352 79 256 c 4
EndSplineSet
Layer: 3
EndChar

StartChar: f
Encoding: 102 102 24
Width: 651
Flags: W
HStem: -161 33<257.705 429.935> 271 25<219.062 298> 390 41.5<358.585 461.761>
VStem: 32 77<8.6261 185.37> 574 29<3.92202 69>
LayerCount: 4
Back
SplineSet
539 271 m 5
 540.333333333 317 525 355.666666667 493 387 c 132
 461 418.333333333 420.666666667 433.333333333 372 432 c 4
 314.666666667 430.666666667 280.333333333 412.666666667 269 378 c 4
 267.666666667 374 267 369.666666667 267 365 c 4
 267 355 270.833333333 346.333333333 278.5 339 c 132
 286.166666667 331.666666667 295 328 305 328 c 4
 309.666666667 328 314 329 318 331 c 4
 330.666666667 335.666666667 340.333333333 343.5 347 354.5 c 132
 353.666666667 365.5 359.333333333 372.666666667 364 376 c 4
 378.666666667 385.333333333 393.333333333 390 408 390 c 4
 424.666666667 390 442.666666667 384 462 372 c 4
 488.666666667 355.333333333 503.666666667 330 507 296 c 5
 237 296 l 6
 180.333333333 296 131.5 276.166666667 90.5 236.5 c 132
 49.5 196.833333333 30 149 32 93 c 4
 34.6666666667 15 68.6666666667 -48.6666666667 134 -98 c 4
 196 -144.666666667 268 -165.333333333 350 -160 c 4
 420.666666667 -155.333333333 480 -132.333333333 528 -91 c 4
 578.666666667 -47.6666666667 603.666666667 5.66666666667 603 69 c 5
 574 69 l 5
 573.333333333 16.3333333333 552.666666667 -28.3333333333 512 -65 c 132
 471.333333333 -101.666666667 421.333333333 -122.333333333 362 -127 c 4
 292.666666667 -132.333333333 234 -113 186 -69 c 132
 138 -25 112.333333333 32.3333333333 109 103 c 4
 107 148.333333333 123 187.666666667 157 221 c 132
 191 254.333333333 232.666666667 271 282 271 c 6
 539 271 l 5
EndSplineSet
Fore
SplineSet
539 271 m 5
 539.048557478 272.675233006 539.074783684 274.341975608 539.074783684 275.999995706 c 4
 539.074783684 370 468.871700649 431.5 376 431.5 c 4
 313 431.5 267 410 267 365 c 4
 267 345.182366328 283 328 305 328 c 4
 330 328 339.454261497 342.04953147 347 354.5 c 4
 360.699662251 377.104442714 380.302185915 390 408 390 c 4
 460.752569308 390 504 346 507 296 c 5
 264 296 l 6
 121 296 32 210 32 99 c 4
 32 -62 177 -161 328 -161 c 4
 480 -161 603 -64 603 69 c 5
 574 69 l 5
 574 -40 468 -128 341 -128 c 4
 216 -128 109 -30 109 110 c 4
 109 203.63883956 174 271 298 271 c 6
 539 271 l 5
EndSplineSet
Validated: 9
Layer: 2
SplineSet
539 268 m 5
 539.048828125 269.674804688 539.074783684 274.341975608 539.074783684 275.999995706 c 4
 539.074783684 370 468.871700649 431.5 376 431.5 c 4
 313 431.5 267 410 267 365 c 4
 267 345.182366328 281 324 313 324 c 4
 340 324 354.454101562 342.049804688 362 354.5 c 132
 375.69921875 377.104492188 396 383 416 383 c 4
 456 383 501 346 504 296 c 5
 264 296 l 6
 121 296 32 210 32 99 c 4
 32 -62 177 -161 328 -161 c 4
 480 -161 603 -64 603 69 c 5
 571 69 l 5
 571 -34 476 -98 394 -98 c 4
 279 -98 187 -23 187 117 c 4
 187 210.638671875 231 268 355 268 c 6
 539 268 l 5
EndSplineSet
Layer: 3
EndChar

StartChar: l
Encoding: 108 108 25
Width: 630
Flags: W
HStem: -1 29.7402<104.766 168.093> 0 67<392.124 476.273> 54 62<309.19 369.5> 115.26 29.7402<104.101 167.851> 320 76<145.394 332> 470 21G<64 118> 576 25<211.047 372.744>
VStem: 32 31<102.523 226.439> 179.26 30.7402<39.4584 104.134> 367 46<174.369 288.495> 546 38<182.817 404.042>
LayerCount: 4
Back
SplineSet
70 105 m 5
 80.6666666667 131.666666667 102.333333333 145 135 145 c 4
 142.333333333 145 149.666666667 144.333333333 157 143 c 4
 187.666666667 137 205.333333333 115.666666667 210 79 c 4
 212 61.6666666667 207 44.6666666667 195 28 c 4
 181.666666667 9.33333333333 164.333333333 -0.333333333333 143 -1 c 4
 103.666666667 -1.66666666667 73.6666666667 21.6666666667 53 69 c 4
 35.6666666667 109 29.3333333333 158 34 216 c 4
 38.6666666667 269.333333333 60.6666666667 312.666666667 100 346 c 132
 139.333333333 379.333333333 188.333333333 396 247 396 c 4
 291 396 328.666666667 384.333333333 360 361 c 4
 394.666666667 335.666666667 412 301.333333333 412 258 c 4
 412 204.666666667 390 157 346 115 c 5
 349.333333333 115.666666667 352.333333333 116 355 116 c 4
 359.666666667 116 367.333333333 111 378 101 c 4
 380.666666667 97 390.333333333 89 407 77 c 4
 418.333333333 70.3333333333 429.333333333 67 440 67 c 4
 478 67 508.666666667 109.333333333 532 194 c 4
 543.333333333 236 548.666666667 277.666666667 548 319 c 4
 546.666666667 392.333333333 522.5 453.166666667 475.5 501.5 c 132
 428.5 549.833333333 370.333333333 574.666666667 301 576 c 4
 207.666666667 578 140 542.666666667 98 470 c 5
 64 470 l 5
 108.666666667 553.333333333 182.666666667 597 286 601 c 4
 360.666666667 603.666666667 426 581 482 533 c 132
 538 485 570.666666667 423.666666667 580 349 c 4
 582.666666667 329.666666667 584 310 584 290 c 4
 584 215.333333333 569 150 539 94 c 4
 508.333333333 35.3333333333 469.666666667 4 423 0 c 4
 401 -2 383 2 369 12 c 4
 363 16 354.333333333 25.3333333333 343 40 c 4
 335 50.6666666667 327 55.6666666667 319 55 c 260
 311 54.3333333333 284.666666667 31.6666666667 240 -13 c 5
 204 -10 l 5
 217.333333333 3.33333333333 245.333333333 34.6666666667 288 84 c 4
 340 146 366.666666667 191.666666667 368 221 c 4
 371.333333333 285.666666667 328.333333333 318.666666667 239 320 c 4
 200.333333333 320.666666667 166.166666667 312.166666667 136.5 294.5 c 132
 106.833333333 276.833333333 86.3333333333 252.333333333 75 221 c 4
 67 199.666666667 63 178 63 156 c 4
 63 139.333333333 65.3333333333 122.333333333 70 105 c 5
90 74 m 4
 90 62 94.6666666667 51.5 104 42.5 c 132
 113.333333333 33.5 124 29 136 29 c 4
 147.333333333 29 157 33.1666666667 165 41.5 c 132
 173 49.8333333333 177 59.6666666667 177 71 c 4
 177 86.3333333333 171.666666667 98 161 106 c 4
 153 112 143.333333333 115 132 115 c 4
 117.333333333 115 106.666666667 110.333333333 100 101 c 132
 93.3333333333 91.6666666667 90 82.6666666667 90 74 c 4
EndSplineSet
Fore
SplineSet
92.740234375 72 m 0x9fe0
 92.740234375 48.3095703125 112.309570312 28.740234375 136 28.740234375 c 0
 159.690429688 28.740234375 179.259765625 48.3095703125 179.259765625 72 c 0
 179.259765625 95.6904296875 159.690429688 115.259765625 136 115.259765625 c 0
 112.309570312 115.259765625 92.740234375 95.6904296875 92.740234375 72 c 0x9fe0
72 101 m 1
 80 129 108 145 135 145 c 0x1fe0
 180.808201089 145 210 116 210 72 c 0
 210 37 180 -1 141 -1 c 0
 56 -1 32 108 32 183 c 0
 32 322 123.838867188 396 240 396 c 0
 333 396 413 343.14453125 413 258 c 0
 413 201 385 153 346 115 c 1
 349.333333333 115.666666667 352.333333333 116 355 116 c 0xafe0
 384 116 390 67 434 67 c 0
 500 67 546 198 546 301 c 0
 546 467 445 576 294 576 c 0
 205 576 139 542.666992188 97 470 c 1
 64 470 l 1
 108.666666667 553.333333333 186 601 298 601 c 0
 464 601 584 473 584 286 c 0
 584 150 524 0 416 0 c 0x4fe0
 352 0 348 54 321 54 c 256x2fe0
 308 54 282 34 240 -21 c 1
 204 -18 l 1
 217.333007812 -4.6669921875 246.086001436 34.0256170965 288 84 c 0
 340 146 367 194 367 232 c 0
 367 286 328 320 236 320 c 0
 155.867967399 320 63 272 63 156 c 0
 63 144 66 118 72 101 c 1
EndSplineSet
Validated: 1
Layer: 2
SplineSet
93.333984375 73 m 4
 93.333984375 49.0869140625 113.086914062 29.333984375 137 29.333984375 c 4
 160.913085938 29.333984375 180.666015625 49.0869140625 180.666015625 73 c 4
 180.666015625 96.9130859375 160.913085938 116.666015625 137 116.666015625 c 4
 113.086914062 116.666015625 93.333984375 96.9130859375 93.333984375 73 c 4
73 106 m 5
 82 132 107 148 137 148 c 4
 179 148 212 120 212 74 c 4
 212 37 182 -1 141 -1 c 4
 56 -1 32 108 32 183 c 4
 32 322 123.838867188 396 240 396 c 4
 333 396 413 343.14453125 413 258 c 4
 413 201 388 172 381 161 c 5
 384.333007812 161.666992188 387.333007812 162 390 162 c 4
 419 162 410 136 444 136 c 4
 504 136 532 215 532 318 c 4
 532 455 445 574 294 574 c 4
 205 574 140 540 99 470 c 5
 64 470 l 5
 108.666666667 553.333333333 186 601 298 601 c 4
 464 601 584 473 584 286 c 4
 584 150 524 0 416 0 c 4
 352 0 348 54 321 54 c 260
 308 54 284 34 242 -21 c 5
 202 -18 l 5
 215.333007812 -4.6669921875 244.0859375 34.025390625 286 84 c 4
 338 146 347 180 347 200 c 4
 347 235 328 275 236 275 c 4
 149 275 70 225 70 140 c 4
 70 128 70 118 73 106 c 5
EndSplineSet
Layer: 3
EndChar

StartChar: n
Encoding: 110 110 26
Width: 636
Flags: W
HStem: -2 73<134.455 283.561> -1 25<338 431.819> 217 24<247.281 300.043> 371 60.5<329.024 471.731> 408.45 23.0498<169.773 233>
VStem: 34 35<150.52 304.409> 216 25<192 209.717> 318 34<109.226 204.325> 543 43<120.217 292.903>
LayerCount: 4
Back
SplineSet
233 407 m 5
 233 430 l 5
 179 433.333333333 131.666666667 413.666666667 91 371 c 4
 53 331 34 275.333333333 34 204 c 4
 34 150 48 103.666666667 76 65 c 4
 105.333333333 24.3333333333 144.666666667 2.33333333333 194 -1 c 4
 245.333333333 -4.33333333333 285.5 8.83333333333 314.5 38.5 c 132
 343.5 68.1666666667 355.666666667 107 351 155 c 4
 345 212.333333333 318 241 270 241 c 4
 263.333333333 241 256.666666667 240.333333333 250 239 c 5
 255.333333333 275.666666667 271.333333333 307 298 333 c 132
 324.666666667 359 356.333333333 372 393 372 c 4
 436.333333333 372 472.333333333 355 501 321 c 132
 529.666666667 287 544 247.666666667 544 203 c 4
 544 151 526.666666667 108.5 492 75.5 c 132
 457.333333333 42.5 414 26 362 26 c 4
 354 26 346 26.3333333333 338 27 c 5
 338 1 l 5
 348.666666667 -0.333333333333 359 -1 369 -1 c 4
 437.666666667 -1 492.666666667 22.6666666667 534 70 c 4
 572.666666667 115.333333333 590 170 586 234 c 4
 582.666666667 286 567.666666667 330 541 366 c 4
 511.666666667 405.333333333 473.333333333 427 426 431 c 4
 363.333333333 436.333333333 312.333333333 411.666666667 273 357 c 4
 240.333333333 312.333333333 221.333333333 257.333333333 216 192 c 5
 241 192 l 5
 241 195.333333333 242.333333333 202.333333333 245 213 c 5
 252.333333333 215.666666667 259.666666667 217 267 217 c 4
 282.333333333 217 294.833333333 210.5 304.5 197.5 c 132
 314.166666667 184.5 319 169.666666667 319 153 c 4
 319 126.333333333 308.5 105.166666667 287.5 89.5 c 132
 266.5 73.8333333333 238 66.6666666667 202 68 c 4
 156 69.3333333333 120.333333333 89 95 127 c 4
 71.6666666667 161 62 201.666666667 66 249 c 4
 70 295 89 333.666666667 123 365 c 132
 157 396.333333333 193.666666667 410.333333333 233 407 c 5
EndSplineSet
Fore
SplineSet
233 408 m 5xaf80
 233 431 l 5
 228.954101562 431.25 223.953128016 431.5 220 431.5 c 4
 109 431.5 34 330 34 207 c 4
 34 96 97 -2 208 -2 c 4xaf80
 295 -2 352 56 352 136 c 4
 352 202 318 241 270 241 c 4
 263.333333333 241 255 240 247 236 c 5
 263 313 316.349609375 371 393 371 c 4
 484 371 543 301 543 200 c 4
 543 100 469 24 362 24 c 4
 354 24 346 25 338 26 c 5
 338 1 l 5
 348.666666667 -0.333333333333 359 -1 369 -1 c 4
 500.052817527 -1 586 95 586 217 c 4
 586 332 522 431.5 410 431.5 c 4x7780
 288 431.5 226.196066844 316.90181884 216 192 c 5
 241 192 l 5
 241 195.333333333 242 204 243 210 c 5
 250 215 259.666666667 217 267 217 c 4
 298.453333284 217 318 196 318 158 c 4
 318 98.6416015625 265 71 206 71 c 4
 117.309455467 71 69 147 69 230 c 4
 69 332 136 408.450195312 222 408.450195312 c 4
 225.310546875 408.450195312 229.64453125 408.284179688 233 408 c 5xaf80
EndSplineSet
Validated: 9
Layer: 2
SplineSet
233 405 m 5
 233 431 l 5
 228.954101562 431.25 223.953128016 431.5 220 431.5 c 4
 109 431.5 34 330 34 207 c 4
 34 96 97 -2 208 -2 c 4
 295 -2 352 56 352 136 c 4
 352 202 320 246 270 246 c 4
 263.333007812 246 256 244 250 241 c 5
 257 277 292 320 363 320 c 4
 461 320 498 242 498 162 c 4
 498 97 466 27 362 27 c 4
 354 27 346 28 338 29 c 5
 338 1 l 5
 348.666666667 -0.333333333333 359 -1 369 -1 c 4
 500.052817527 -1 586 95 586 217 c 4
 586 332 522 431.5 410 431.5 c 4
 288 431.5 225 321 216 194 c 5
 244 194 l 5
 244 197.333007812 245 208 246 214 c 5
 251 217 258 220 269 220 c 4
 276 220 294 216 294 191 c 4
 294 164 265 140 206 140 c 4
 129 140 88 182 88 254 c 4
 88 333 138 405.450195312 222 405.450195312 c 4
 225.310546875 405.450195312 229.64453125 405.284179688 233 405 c 5
EndSplineSet
Layer: 3
EndChar

StartChar: o
Encoding: 111 111 27
Width: 677
Flags: W
HStem: -1 72<136.372 244.886 417.471 546.621> 171 29<293.104 369.252> 276 32<5 143.684> 283 25<5.77848 281 382 443.783> 291 25<382.511 523.194> 393 39<166.151 257.965 411.245 528.279>
VStem: 51 38<119.848 227.584> 242 30<74.1548 149.615> 281.086 32.0605<308 364.157> 391 29<76.5521 149.082> 540 39<306.344 379.751> 593 35<121.66 234.924>
LayerCount: 4
Back
SplineSet
550 297 m 1
 557.333333333 299 564 305.166666667 570 315.5 c 128
 576 325.833333333 579 337 579 349 c 0
 579 354.333333333 578.333333333 359.666666667 577 365 c 0
 563 413 527.333333333 435.333333333 470 432 c 0
 428 429.333333333 396.666666667 412.333333333 376 381 c 0
 358.666666667 353.666666667 351 320 353 280 c 1
 397.666666667 289.333333333 440.333333333 292.333333333 481 289 c 0
 511.666666667 286.333333333 537.833333333 275 559.5 255 c 128
 581.166666667 235 592.333333333 209.333333333 593 178 c 0
 593.666666667 148 581.666666667 122.666666667 557 102 c 128
 532.333333333 81.3333333333 503.666666667 71 471 71 c 0
 439.666666667 71 421.666666667 73.6666666667 417 79 c 1
 423.666666667 109.666666667 420 136.666666667 406 160 c 0
 390 185.333333333 366.333333333 198.666666667 335 200 c 0
 302.333333333 201.333333333 276.333333333 188.333333333 257 161 c 0
 247 147 242 130.333333333 242 111 c 0
 242 100.333333333 243.666666667 88.6666666667 247 76 c 1
 243.666666667 72.6666666667 232 71 212 71 c 0
 180.666666667 71 152.333333333 81.1666666667 127 101.5 c 128
 101.666666667 121.833333333 89 146.333333333 89 175 c 0
 89 206.333333333 101.666666667 232 127 252 c 0
 149.666666667 269.333333333 177.666666667 279.666666667 211 283 c 0
 228.333333333 285 262 284.666666667 312 282 c 1
 316 374 279 424 201 432 c 0
 167.666666667 435.333333333 140.333333333 429.5 119 414.5 c 128
 97.6666666667 399.5 87.6666666667 380.666666667 89 358 c 256
 90.3333333333 335.333333333 101.666666667 323.666666667 123 323 c 0
 145 322.333333333 160.833333333 332.5 170.5 353.5 c 128
 180.166666667 374.5 193 385 209 385 c 0
 253.666666667 385.666666667 278 360 282 308 c 1
 5 308 l 1
 5 285 l 1
 144 285 l 1
 92 269 61.6666666667 233.666666667 53 179 c 0
 51.6666666667 171 51 162.666666667 51 154 c 0
 51 112.666666667 64.6666666667 77 92 47 c 0
 120.666666667 15 156.333333333 -1 199 -1 c 0
 217.666666667 -1 243.666666667 3 277 11 c 1
 279.666666667 18.3333333333 281 25.6666666667 281 33 c 256
 281 40.3333333333 279.333333333 51.3333333333 276 66 c 128
 272.666666667 80.6666666667 271 92.3333333333 271 101 c 0
 271 121 276.5 137.666666667 287.5 151 c 128
 298.5 164.333333333 314 171 334 171 c 0
 346.666666667 171 358.166666667 166.666666667 368.5 158 c 128
 378.833333333 149.333333333 385.666666667 138.666666667 389 126 c 0
 391 118.666666667 392 111 392 103 c 0
 392 92.3333333333 389.666666667 79 385 63 c 128
 380.333333333 47 378 36 378 30 c 0
 378 23.3333333333 379.333333333 17.3333333333 382 12 c 1
 412.666666667 4 440 0 464 0 c 0
 510 0 549 15.3333333333 581 46 c 128
 613 76.6666666667 629 113 629 155 c 0
 629 163 628.333333333 170.666666667 627 178 c 0
 623 234 597.333333333 273.666666667 550 297 c 1
382 310 m 1
 386.666666667 364.666666667 415.666666667 392 469 392 c 0
 475 392 481.333333333 391.666666667 488 391 c 0
 502.666666667 389 515 383.333333333 525 374 c 128
 535 364.666666667 540 353.666666667 540 341 c 256
 540 328.333333333 535 316.666666667 525 306 c 1
 505.666666667 313.333333333 479 317 445 317 c 0
 419 317 398 314.666666667 382 310 c 1
EndSplineSet
Fore
SplineSet
216 283 m 2xd7f0
 163 283 89 248 89 175 c 0
 89 116.176395544 142 71 212 71 c 0
 228 71 241.666992188 72.6669921875 245 76 c 1
 243 86 242 98 242 106 c 0
 242 180 295 200 332 200 c 0
 365 200 420 180 420 108 c 0
 420 101 419 87 417 79 c 1
 421.42388011 75.6679341213 439.705037723 71 471 71 c 0
 540 71 593 113 593 178 c 0
 593 248 541 291 448 291 c 0xcff0
 412 291 386 289 353 282 c 1
 352.814453125 285.706054688 352.717070236 287.374324769 352.717070236 290.99999647 c 0
 352.717070236 375 400.57421875 432 476 432 c 0
 530 432 579 408 579 350 c 0
 579 328.666992188 565 306 550 297 c 1
 597.333333333 273.666666667 628 221.08203125 628 166 c 0
 628 58 555.929102634 0 464 0 c 0
 440 0 412.666666667 4 382 12 c 1
 379.333333333 17.3333333333 378 23.3333333333 378 30 c 0
 378 64 391 78 391 108 c 0
 391 142 367.440429688 171 332 171 c 0
 306 171 272 153 272 106 c 0
 272 71 281 69 281 35 c 256
 281 27.6669921875 280 17 277 11 c 1
 246 2 217.666666667 -1 199 -1 c 0
 108.173759358 -1 51 76 51 154 c 0
 51 226 92 269 144 285 c 1
 177.760742188 297.19921875 231.875 308 269 308 c 2
 281 308 l 1
 281.08203125 310.041015625 281.0859375 310.041015625 281.0859375 312 c 0
 281.0859375 360 249 395 212 395 c 0
 173 395 162 371 156.5 355 c 0
 149.951171875 335.948242188 139.87109375 323 118 323 c 0
 102 323 82 333.368164062 82 359 c 0
 82 406 132 431.5 187 431.5 c 0
 275 431.5 313.146484375 369 313.146484375 296 c 0
 313.146484375 292.721679688 313.100585938 286.387695312 313 283 c 1
 216 283 l 2xd7f0
147 283 m 2xd7f0
 76 282 21 278.666992188 5 276 c 1
 5 308 l 1xe7f0
 279 308 l 1
 309 283 l 1
 147 283 l 2xd7f0
382 310 m 1
 395 314 419 316 445 316 c 0xcff0
 479 316 510 312 525 306 c 1
 537 319 540 334 540 346 c 256
 540 379 506.477539062 393 470 393 c 0
 418 393 386.666666667 364.666666667 382 310 c 1
EndSplineSet
Validated: 5
Layer: 2
SplineSet
224 280 m 2
 164 280 112 245 112 201 c 0
 112 157 152 138 193 138 c 0
 211 138 233 140 240 146 c 1
 241 153 241.244968215 159.182471262 243.574758027 167.9999928 c 0
 254.551624215 209.543978242 289.609881952 232 332 232 c 0
 373.967786676 232 407.467808359 211.807637325 418.831859094 173.000012663 c 0
 421.548385036 163.723222056 423 156 423 149 c 1
 431 142 450.705078125 138 482 138 c 0
 526 138 569 164 569 214 c 0
 569 251 535 288 448 288 c 0
 412 288 386 286 353 279 c 1
 352.814453125 282.706054688 352.717070236 287.374324769 352.717070236 290.99999647 c 0
 352.717070236 375 400 432 478 432 c 0
 532 432 579 405 579 351 c 0
 579 329.666992188 569 308 550 297 c 1
 597.333333333 273.666666667 628 221.08203125 628 166 c 0
 628 58 555.929102634 0 464 0 c 0
 440 0 411.666992188 4 381 12 c 1
 378 16 377 40.3330078125 377 47 c 0
 377 84 392 95 392 134 c 0
 392 171 376 200 332 200 c 0
 288 200 271 177 271 134 c 128
 271 96 282 95 282 47 c 256
 282 39.6669921875 281 17 278 11 c 1
 247 2 217.666666667 -1 199 -1 c 0
 108.173759358 -1 51 76 51 154 c 0
 51 226 92 267 144 283 c 1
 177.760742188 295.19921875 232 308 269 308 c 2
 278 308 l 1
 278.08203125 310.041015625 278.0859375 310.041015625 278.0859375 312 c 0
 278.0859375 355 250 387 213 387 c 128
 190 387 175.573242188 374.8046875 168.5 355 c 128
 161 334 147 320 121 320 c 0
 98 320 82 333.368164062 82 359 c 0
 82 406 132 431.5 187 431.5 c 0
 275 431.5 313.146484375 369 313.146484375 293 c 0
 313.146484375 289.721679688 313.100585938 283.387695312 313 280 c 1
 224 280 l 2
147 280 m 2
 76 279 21 275.666992188 5 273 c 1
 5 308 l 1
 276 308 l 1
 309 280 l 1
 147 280 l 2
385 310 m 1
 398 314 419 316 445 316 c 0
 479 316 507 312 521 307 c 1
 530 314 537 326 537 344 c 256
 537 376 500 390 471 390 c 0
 419 390 389.666992188 364.666992188 385 310 c 1
EndSplineSet
Layer: 3
SplineSet
550 297 m 5
 557.333333333 299 564 305.166666667 570 315.5 c 132
 576 325.833333333 579 337 579 349 c 4
 579 354.333333333 578.333333333 359.666666667 577 365 c 4
 563 413 527.333333333 435.333333333 470 432 c 4
 428 429.333333333 396.666666667 412.333333333 376 381 c 4
 358.666666667 353.666666667 351 320 353 280 c 5
 397.666666667 289.333333333 440.333333333 292.333333333 481 289 c 4
 509 286.333333333 532.333333333 277 551 261 c 132
 569.666666667 245 579 223.666666667 579 197 c 4
 579 169.666666667 570 148.833333333 552 134.5 c 132
 534 120.166666667 510.333333333 113 481 113 c 4
 448.333333333 113 428.333333333 114.333333333 421 117 c 5
 419 135 412.666666667 151 402 165 c 4
 386 187.666666667 363.666666667 199.333333333 335 200 c 4
 301.666666667 201.333333333 275.666666667 188.333333333 257 161 c 4
 245 143.666666667 240.333333333 130 243 120 c 5
 231.666666667 115.333333333 220 113 208 113 c 4
 140 113 104.666666667 139 102 191 c 4
 99.3333333333 245 135.666666667 275.666666667 211 283 c 4
 228.333333333 285 262 284.666666667 312 282 c 5
 316 374 279 424 201 432 c 4
 167 435.333333333 139.5 430.166666667 118.5 416.5 c 132
 97.5 402.833333333 87.6666666667 384.666666667 89 362 c 4
 90.3333333333 340 102.333333333 328.333333333 125 327 c 4
 149.666666667 325.666666667 166.166666667 334.333333333 174.5 353 c 132
 182.833333333 371.666666667 195.666666667 381 213 381 c 4
 255.666666667 381.666666667 278.666666667 357.333333333 282 308 c 5
 5 308 l 5
 5 285 l 5
 144 285 l 5
 92 269 61.6666666667 233.666666667 53 179 c 4
 51.6666666667 171 51 162.666666667 51 154 c 4
 51 112.666666667 64.6666666667 77 92 47 c 4
 120.666666667 15 156.333333333 -1 199 -1 c 4
 217.666666667 -1 243.666666667 3 277 11 c 5
 279.666666667 18.3333333333 281 25.6666666667 281 33 c 260
 281 40.3333333333 279.333333333 51.3333333333 276 66 c 132
 272.666666667 80.6666666667 271 92.3333333333 271 101 c 4
 271 121 276.5 137.666666667 287.5 151 c 132
 298.5 164.333333333 314 171 334 171 c 4
 346.666666667 171 358.166666667 166.666666667 368.5 158 c 132
 378.833333333 149.333333333 385.666666667 138.666666667 389 126 c 4
 391 118.666666667 392 111 392 103 c 4
 392 92.3333333333 389.666666667 79 385 63 c 132
 380.333333333 47 378 36 378 30 c 4
 378 23.3333333333 379.333333333 17.3333333333 382 12 c 5
 412.666666667 4 440 0 464 0 c 4
 510 0 549 15.3333333333 581 46 c 132
 613 76.6666666667 629 113 629 155 c 4
 629 163 628.333333333 170.666666667 627 178 c 4
 623 234 597.333333333 273.666666667 550 297 c 5
382 310 m 5
 386.666666667 364.666666667 415.666666667 392 469 392 c 4
 475 392 481.333333333 391.666666667 488 391 c 4
 502.666666667 389 515 383.333333333 525 374 c 132
 535 364.666666667 540 353.666666667 540 341 c 260
 540 328.333333333 535 316.666666667 525 306 c 5
 505.666666667 313.333333333 479 317 445 317 c 4
 419 317 398 314.666666667 382 310 c 5
EndSplineSet
EndChar

StartChar: u
Encoding: 117 117 28
Width: 704
Flags: HW
LayerCount: 4
Back
SplineSet
174 322 m 5
 176.666666667 331.333333333 178 340.666666667 178 350 c 4
 178 376.666666667 169.333333333 389.666666667 152 389 c 4
 135.333333333 388.333333333 125 377.833333333 121 357.5 c 132
 117 337.166666667 114.666666667 326.333333333 114 325 c 4
 110 312.333333333 103 303.666666667 93 299 c 4
 87 296.333333333 80.3333333333 295 73 295 c 4
 58.3333333333 295 48.3333333333 301 43 313 c 4
 39 322.333333333 37 332 37 342 c 4
 37 365.333333333 46.1666666667 386.333333333 64.5 405 c 132
 82.8333333333 423.666666667 103.333333333 433 126 433 c 4
 178 433 204.666666667 404.666666667 206 348 c 5
 231.333333333 376.666666667 266.666666667 399 312 415 c 4
 351.333333333 428.333333333 392.333333333 435 435 435 c 4
 450.333333333 435 465 434 479 432 c 4
 529 424.666666667 572 397 608 349 c 4
 640.666666667 305.666666667 659 260 663 212 c 4
 667 160 658.333333333 113.333333333 637 72 c 4
 613.666666667 27.3333333333 581 3.33333333333 539 0 c 4
 502.333333333 -2.66666666667 474.333333333 2.66666666667 455 16 c 5
 460 42 l 5
 476.666666667 32 494 27 512 27 c 4
 525.333333333 27 538 30 550 36 c 4
 590 56 610 94.3333333333 610 151 c 4
 610 234.333333333 571.666666667 299 495 345 c 4
 457 367.666666667 414.333333333 379 367 379 c 4
 296.333333333 379 241 354.666666667 201 306 c 5
 222.333333333 315.333333333 249 320 281 320 c 4
 322.333333333 320 356.666666667 312.333333333 384 297 c 4
 426 273 450.333333333 237.333333333 457 190 c 4
 458.333333333 180 459 170.333333333 459 161 c 4
 459 115 444.166666667 77.3333333333 414.5 48 c 132
 384.833333333 18.6666666667 346.333333333 2.33333333333 299 -1 c 4
 235 -5 185.666666667 7.33333333333 151 36 c 4
 141 46 131 55.6666666667 121 65 c 4
 107 76.3333333333 93.6666666667 81 81 79 c 4
 65 76.3333333333 52.6666666667 53 44 9 c 5
 22 25 l 5
 32.6666666667 95 58 162 98 226 c 4
 126.666666667 271.333333333 152 303.333333333 174 322 c 5
159 265 m 5
 153 257.666666667 141 240.333333333 123 213 c 4
 105 183.666666667 88 146 72 100 c 5
 81.3333333333 106 91.6666666667 109 103 109 c 4
 119 109 141.333333333 102 170 88 c 4
 190 78 218 73 254 73 c 4
 276 73 297 75 317 79 c 4
 347 85 371.166666667 97.5 389.5 116.5 c 132
 407.833333333 135.5 417 159.333333333 417 188 c 4
 417 196 416.333333333 204.333333333 415 213 c 4
 409.666666667 240.333333333 392 261.666666667 362 277 c 4
 336 290.333333333 308.333333333 296.666666667 279 296 c 4
 229.666666667 294.666666667 189.666666667 284.333333333 159 265 c 5
EndSplineSet
Fore
SplineSet
174 322 m 5
 177.258003369 330.959509264 178.960354973 340.281429113 178.960354973 348.999999236 c 4
 178.960354973 371 169.701300131 388 151 388 c 4
 134.319335938 388 119.702084404 376.211489924 119 355.5 c 132
 118 326 110 295 75 295 c 4
 49.4970703125 295 37 316.58246164 37 342 c 4
 37 392 78 433 127 433 c 4
 177.34375 433 206.099996048 400 206.099996048 353.000004068 c 4
 206.099996048 351.354874105 206.063701524 349.688090391 206 348 c 5
 272 420 359 435 423 435 c 4
 562 435 664 334 664 185 c 4
 664 85.001953125 612 -1 526 -1 c 4
 499 -1 474.333333333 2.66666666667 455 16 c 5
 460 42 l 5
 476.666666667 32 494 27 512 27 c 4
 578.507540439 27 610 85.4251099599 610 151 c 4
 610 271.552627534 508.436980455 379 367 379 c 4
 296.333333333 379 241 354.666666667 201 306 c 5
 222.333333333 315.333333333 249 320 281 320 c 4
 382 320 459 268 459 162 c 4
 459 70 392 -2 282 -2 c 4
 134 -2 140 79 89 79 c 4
 65 79 52.6666666667 53 44 9 c 5
 22 25 l 5
 35 130 106 252 174 322 c 5
157 260 m 5
 125.500976562 221.500976562 92 165 71 100 c 5
 80 107 91.6666666667 109 103 109 c 4
 140 109 176 73 254 73 c 4
 340.858332255 73 417 103.291024103 417 188 c 4
 417 259.56850938 350 296 283 296 c 4
 233.648986133 296 188 284 157 260 c 5
EndSplineSet
Layer: 2
Layer: 3
EndChar

StartChar: x
Encoding: 120 120 29
Width: 614
Flags: HW
LayerCount: 4
Back
SplineSet
245 405 m 5
 194.333333333 404.333333333 151.833333333 388.166666667 117.5 356.5 c 132
 83.1666666667 324.833333333 66.3333333333 286.666666667 67 242 c 4
 67.6666666667 184 91.6666666667 140 139 110 c 4
 181.666666667 82.6666666667 238.333333333 69.6666666667 309 71 c 4
 373 71.6666666667 425.833333333 91.3333333333 467.5 130 c 132
 509.166666667 168.666666667 530 219.666666667 530 283 c 4
 530 335 517.666666667 378 493 412 c 5
 474.333333333 379.333333333 447.666666667 363 413 363 c 4
 387 363 363.666666667 371.5 343 388.5 c 132
 322.333333333 405.5 311 426.666666667 309 452 c 4
 305.666666667 504.666666667 319.333333333 555 350 603 c 5
 401.333333333 582.333333333 449 538.666666667 493 472 c 4
 541.666666667 400 566 327.333333333 566 254 c 260
 566 180.666666667 540.666666667 120 490 72 c 132
 439.333333333 24 375.333333333 -0.333333333333 298 -1 c 4
 224 -1.66666666667 161.333333333 20.3333333333 110 65 c 132
 58.6666666667 109.666666667 33 167.333333333 33 238 c 4
 33 291.333333333 54.3333333333 336.666666667 97 374 c 4
 137.666666667 409.333333333 187 428 245 430 c 5
 245 405 l 5
363 565 m 5
 347 549 339 520 339 478 c 4
 339 445.333333333 349 422 369 408 c 4
 381.666666667 399.333333333 395 395 409 395 c 4
 437 395 459.666666667 411.333333333 477 444 c 5
 467 463.333333333 451.333333333 484.333333333 430 507 c 4
 401.333333333 537.666666667 379 557 363 565 c 5
EndSplineSet
Fore
SplineSet
531 281 m 4
 531 337.666992188 514 388 493 420 c 5
 478.333007812 387.333007812 448 367 405 367 c 4
 341.844726562 367 305 422 305 488 c 4
 305 538 320 574 347 605 c 5
 408 572 478.964640054 500.242069569 515 438 c 4
 553.783203125 371.01171875 566 322 566 252 c 4
 566 102.630859375 450 -1 295 -1 c 4
 150.697265625 -1 33 92.060546875 33 235 c 4
 33 344.829101562 134 430 245 430 c 5
 245 405 l 5
 148 405 67 335.844726562 67 242 c 4
 67 122 172.859375 71 305 71 c 4
 433 71 531 154.362304688 531 281 c 4
474 448 m 5
 444 494 394 540 356 568 c 5
 344 550 335 526.666992188 335 492 c 4
 335 442.666992188 355 403 412 403 c 4
 436 403 463.763671875 414.140625 474 448 c 5
EndSplineSet
Layer: 2
Layer: 3
EndChar
